<?xml version="1.0" standalone="no"?>
<!DOCTYPE svg PUBLIC "-//W3C//DTD SVG 1.1//EN" "http://www.w3.org/Graphics/SVG/1.1/DTD/svg11.dtd" >
<svg xmlns="http://www.w3.org/2000/svg">
<metadata></metadata>
<defs>
<font id="nordeuslight" horiz-adv-x="1138" >
<font-face units-per-em="2048" ascent="1536" descent="-512" />
<missing-glyph horiz-adv-x="548" />
<glyph horiz-adv-x="0" />
<glyph unicode="&#xd;" horiz-adv-x="573" />
<glyph unicode=" "  horiz-adv-x="548" />
<glyph unicode="&#x09;" horiz-adv-x="548" />
<glyph unicode="&#xa0;" horiz-adv-x="548" />
<glyph unicode="!" horiz-adv-x="444" d="M147 1434h150l-25 -1121h-100zM152 0v141h141v-141h-141z" />
<glyph unicode="&#x22;" horiz-adv-x="626" d="M94 1434h172l-43 -404h-88zM360 1434h172l-43 -404h-88z" />
<glyph unicode="#" horiz-adv-x="1204" d="M49 520v88h293l37 256h-285v88h299l68 482h104l-71 -482h264l69 482h105l-74 -482h285v-88h-297l-37 -256h289v-88h-303l-76 -520h-103l78 520h-264l-76 -520h-102l78 520h-281zM444 608h263l36 256h-262z" />
<glyph unicode="$" horiz-adv-x="1079" d="M72 39l32 131q61 -16 132 -27q59 -10 134.5 -18t159.5 -8h2v567q-2 2 -3 2t-3 2q-68 29 -141.5 66t-132.5 85t-98 109.5t-39 138.5q0 86 31.5 153t86 112t124 68.5t147.5 23.5h28v160h105v-162q109 -2 197 -4t133 -4l-33 -138q-39 2 -86 4q-41 2 -94.5 3.5t-116.5 3.5 v-514q70 -31 137.5 -69t120.5 -86t87 -109.5t34 -143.5q0 -164 -102.5 -270.5t-276.5 -130.5v-187h-105v178h-2q-188 0 -300.5 24t-157.5 40zM262 1087q0 -43 22.5 -77.5t59.5 -64.5t86 -55.5t102 -49.5v469h-4q-53 0 -101 -15.5t-85 -43t-58.5 -70t-21.5 -93.5zM637 127 q109 23 170 91.5t61 166.5q0 45 -18.5 82t-49 67.5t-72.5 56t-91 48.5v-512z" />
<glyph unicode="%" horiz-adv-x="1681" d="M70 1079q0 94 25.5 166t69.5 119t102.5 70.5t121.5 23.5t121.5 -23.5t102.5 -70.5t70 -118.5t26 -166.5q0 -94 -26 -164.5t-70 -117.5t-102 -71t-122 -24q-63 0 -121.5 24t-102.5 71t-69.5 117.5t-25.5 164.5zM176 1079q0 -158 58.5 -226.5t154.5 -68.5t154.5 69 t58.5 226q0 160 -57.5 228.5t-155.5 68.5t-155.5 -68.5t-57.5 -228.5zM395 0l770 1434h123l-768 -1434h-125zM973 352q0 94 25.5 166t69.5 119t102.5 70.5t121.5 23.5t122 -23.5t103 -70.5t69.5 -119t25.5 -166t-25.5 -164.5t-69.5 -117.5t-102.5 -71t-122.5 -24 q-63 0 -121.5 24t-102.5 71t-69.5 117.5t-25.5 164.5zM1079 352q0 -158 58.5 -226.5t154.5 -68.5t154.5 69t58.5 226q0 160 -57 228.5t-156 68.5q-98 0 -155.5 -68.5t-57.5 -228.5z" />
<glyph unicode="&#x26;" horiz-adv-x="1599" d="M152 375q0 66 25.5 124t70.5 110.5t104.5 98.5t126.5 89q-92 84 -156.5 172t-64.5 186q0 70 29.5 126t80 96t116 60.5t137.5 20.5q76 0 143 -18.5t117.5 -55t79 -92t28.5 -129.5q0 -66 -22.5 -117t-63.5 -95t-97 -83t-124 -82q98 -92 195.5 -177t195.5 -177l211 328h148 l-267 -410l389 -350h-188l-270 242q-96 -139 -209 -203t-260 -64q-90 0 -175 25t-152 75t-107.5 124.5t-40.5 175.5zM287 367q4 -63 34.5 -113.5t77.5 -86.5t107.5 -54.5t124.5 -18.5q129 0 221 67.5t152 164.5l-431 387q-150 -88 -218 -167t-68 -179zM403 1153 q0 -49 21.5 -92t52.5 -78t63.5 -65.5t57.5 -55.5q37 29 81 56.5t81 61.5t63.5 76t30.5 99q0 47 -18.5 84t-49 63.5t-70.5 40t-81 13.5q-61 0 -105.5 -17.5t-72 -47t-41 -65.5t-13.5 -73z" />
<glyph unicode="'" horiz-adv-x="360" d="M94 1434h172l-43 -404h-88z" />
<glyph unicode="(" horiz-adv-x="589" d="M133 614q0 256 76 485.5t223 430.5l96 -74q-150 -199 -213 -409.5t-63 -432.5q0 -246 62.5 -457.5t211.5 -410.5l-98 -68q-78 100 -134 214t-92 235t-52.5 244t-16.5 243z" />
<glyph unicode=")" horiz-adv-x="589" d="M133 1456l96 74q147 -201 223 -430.5t76 -485.5q0 -121 -16 -243.5t-52 -243.5t-92.5 -234.5t-134.5 -214.5l-98 68q150 199 212.5 411t62.5 457q0 221 -63.5 432t-213.5 410z" />
<glyph unicode="*" horiz-adv-x="1107" d="M156 858l311 152l-311 151l82 131l276 -211l-37 353h154l-37 -353l276 211l82 -131l-311 -151l311 -152l-82 -131l-276 211l37 -352h-154l37 352l-276 -211z" />
<glyph unicode="+" horiz-adv-x="1228" d="M102 449v126h449v449h127v-449h448v-126h-448v-449h-127v449h-449z" />
<glyph unicode="," horiz-adv-x="315" d="M16 -125l86 287h142l-115 -287h-113z" />
<glyph unicode="-" horiz-adv-x="622" d="M61 457v110h500v-110h-500z" />
<glyph unicode="." horiz-adv-x="419" d="M139 0v141h142v-141h-142z" />
<glyph unicode="/" horiz-adv-x="804" d="M6 -84l658 1585h135l-656 -1585h-137z" />
<glyph unicode="0" d="M80 717q0 172 27.5 310t88 233.5t152.5 146.5t221 51t221.5 -51t153 -146.5t88 -233.5t27.5 -310t-27.5 -310.5t-88 -233.5t-153 -146.5t-221.5 -51.5t-221 51.5t-152.5 146.5t-88 233.5t-27.5 310.5zM236 717q0 -178 27.5 -298t74.5 -190.5t106 -100.5t125 -30t126.5 30 t106.5 100.5t73.5 190.5t27.5 298t-27.5 298t-73.5 190.5t-106.5 100t-126.5 29.5t-125 -29.5t-106 -100t-74.5 -190.5t-27.5 -298z" />
<glyph unicode="1" d="M215 1133l371 301h141v-1434h-141v1260l-283 -236z" />
<glyph unicode="2" d="M129 0v123l557 659q72 84 112 150.5t40 148.5q0 55 -21.5 101.5t-58.5 80t-88.5 53t-110.5 19.5q-66 0 -114 -23.5t-81.5 -58t-55 -73.5t-29.5 -68l-134 49q12 41 41 92.5t78 97.5t122 76.5t173 30.5q88 0 165 -24.5t135.5 -72.5t92 -120t33.5 -164q0 -66 -26.5 -131 t-68.5 -127.5t-92 -121t-96 -113.5l-387 -461h695l18 -123h-899z" />
<glyph unicode="3" d="M96 231l107 64q25 -37 57.5 -73t73.5 -63.5t95 -44t122 -16.5t123 22.5t96 61.5t63.5 92.5t22.5 114.5q0 152 -85 225.5t-232 73.5h-205l16 123h187q61 0 109 22.5t82 60.5t51.5 86t17.5 99q0 45 -16.5 91.5t-51.5 83t-88 59t-127 22.5q-55 0 -100 -16t-80 -42 t-60.5 -59.5t-42.5 -68.5l-129 41q20 51 58.5 99t90.5 86t117.5 60.5t143.5 22.5q98 0 178 -29.5t136.5 -80t87 -118t30.5 -143.5q0 -125 -56.5 -203.5t-133.5 -119.5q111 -31 184.5 -125t73.5 -248q0 -92 -38 -168t-101.5 -131t-147.5 -86t-174 -31t-161 22.5t-125 59.5 t-96 82t-73 92z" />
<glyph unicode="4" d="M57 330v123l568 981h206v-981h232l8 -123h-240v-330h-141v330h-633zM201 453h489v839z" />
<glyph unicode="5" d="M74 268l108 68q14 -29 43 -69t72 -76.5t100.5 -63.5t130.5 -27q94 0 162 30t111 77t63.5 108.5t20.5 126.5q0 59 -21.5 119t-67.5 108t-119 78.5t-175 30.5h-338l55 656h746l-17 -123h-598l-35 -410h246q117 0 206 -39t148.5 -103.5t89 -147.5t29.5 -169 q0 -104 -35.5 -190t-102.5 -147.5t-161 -95.5t-213 -34q-100 0 -177 33t-132 79t-89 96t-50 85z" />
<glyph unicode="6" d="M100 621q0 147 26 295.5t90.5 269.5t171 196.5t269.5 75.5q70 0 129.5 -18.5t106.5 -46t83 -59t60 -56.5l-90 -92q-68 70 -140.5 109.5t-158.5 39.5q-113 0 -187.5 -60.5t-118.5 -146.5t-61.5 -181t-17.5 -167q43 43 98 80q47 29 113 54.5t150 25.5q86 0 168.5 -29.5 t147.5 -88t104.5 -146.5t39.5 -205q0 -111 -37.5 -202t-103 -156.5t-157 -101.5t-197.5 -36q-109 0 -198 39t-153.5 119t-100.5 201t-36 287zM262 455q0 -84 27.5 -149.5t75 -112t109 -71t128.5 -24.5q76 0 137.5 29t105.5 79t67.5 116.5t23.5 142.5q0 74 -24.5 138.5 t-68.5 111.5t-103.5 74.5t-129.5 27.5q-68 0 -131 -24.5t-111.5 -70.5t-77 -113.5t-28.5 -153.5z" />
<glyph unicode="7" d="M113 1434h895v-109l-637 -1325h-154l629 1311h-717z" />
<glyph unicode="8" d="M74 375q0 98 46 169.5t104.5 119t110.5 71t64 27.5q-10 2 -54 23.5t-93 61.5t-88 100.5t-39 144.5q0 76 30.5 142t88 115.5t140.5 78t185 30.5h4q102 -2 184.5 -31.5t138.5 -79t87 -114.5t31 -141q0 -84 -39 -144.5t-88 -100.5t-93 -61.5t-55 -23.5q12 -4 64.5 -27.5 t111 -71t104.5 -119t46 -169.5q0 -78 -27.5 -149.5t-87 -127t-154 -89.5t-227.5 -34t-227 34t-153.5 89.5t-87 127t-27.5 149.5zM229 377q0 -70 26 -122t72 -87t107.5 -52.5t134.5 -17.5h2q72 0 134.5 17.5t107.5 52.5t70.5 87t25.5 122t-35.5 124t-88 94t-111 65.5 t-105.5 37.5q-47 -12 -105 -37.5t-110.5 -65.5t-88.5 -94.5t-36 -123.5zM272 1100q0 -61 27 -108.5t69 -81t95 -57.5t106 -40h2q51 16 104.5 40t95.5 57.5t68.5 81t26.5 108.5q0 123 -82 177t-215 58q-133 -4 -215 -58t-82 -177z" />
<glyph unicode="9" d="M55 963q0 111 38 201.5t103.5 156t156.5 101.5t198 36q106 0 196.5 -39t155 -118.5t100 -200.5t35.5 -287q0 -147 -25.5 -295.5t-90 -269.5t-172 -197t-269.5 -76q-70 0 -129 18.5t-106 46.5t-83 59.5t-61 56.5l91 92q68 -70 140.5 -110t158.5 -40q113 0 187.5 60.5 t118.5 146.5t61.5 181.5t17.5 166.5q-43 -45 -99 -80q-47 -31 -113.5 -55t-148.5 -24q-86 0 -169 29.5t-147.5 88t-104.5 146.5t-40 205zM203 969q0 -74 24.5 -138.5t68.5 -111.5t103.5 -75t128.5 -28q68 0 131.5 25t111.5 71t77 113.5t29 153.5q0 84 -28 149.5t-75 111.5 t-108.5 70.5t-128.5 24.5q-76 0 -137.5 -28.5t-105.5 -78.5t-67.5 -116.5t-23.5 -142.5z" />
<glyph unicode=":" horiz-adv-x="419" d="M139 0v141h142v-141h-142zM139 883v141h142v-141h-142z" />
<glyph unicode=";" horiz-adv-x="425" d="M59 -125l86 287h142l-115 -287h-113zM143 883v141h142v-141h-142z" />
<glyph unicode="&#x3c;" horiz-adv-x="1177" d="M94 442v140l991 454v-131l-858 -393l858 -393v-131z" />
<glyph unicode="=" horiz-adv-x="1261" d="M102 276v127h1057v-127h-1057zM102 614v127h1057v-127h-1057z" />
<glyph unicode="&#x3e;" horiz-adv-x="1177" d="M94 -12v131l858 393l-858 393v131l991 -454v-140z" />
<glyph unicode="?" horiz-adv-x="874" d="M45 1137q35 154 126 237.5t251 83.5q80 0 148.5 -21.5t119.5 -63.5t81 -105.5t30 -145.5q0 -76 -29 -139t-72 -119.5t-93 -106.5t-95 -100q-41 -49 -58.5 -93t-17.5 -118v-133h-129v142q0 53 6 93t18.5 71.5t29 57t38.5 50.5q39 43 84 86t84 90t64.5 99.5t25.5 113.5 q0 109 -63.5 170.5t-173.5 61.5q-59 0 -103.5 -19.5t-77 -52.5t-53 -76t-32.5 -92q-20 4 -39 9t-70 20zM301 0v141h141v-141h-141z" />
<glyph unicode="@" horiz-adv-x="1644" d="M102 635q0 147 48.5 293.5t147.5 264.5t248.5 191.5t352.5 73.5q129 0 245 -39t205 -114.5t141 -186t52 -254.5q0 -152 -38 -254t-96 -166.5t-130 -92t-141 -27.5q-23 0 -51.5 6t-53 24.5t-41 51t-12.5 86.5q-49 -80 -129 -121t-152 -41q-121 0 -184 77.5t-63 204.5 q0 88 24.5 178.5t74.5 161t125 115.5t173 45q53 0 114.5 -23.5t116.5 -103.5l31 88h102l-133 -461q-10 -33 -14 -66.5t1 -61t24.5 -46t56.5 -18.5q55 0 107.5 21.5t92 72.5t64.5 136t25 210t-43 218t-120 155.5t-180.5 94.5t-222.5 32q-164 0 -285.5 -63.5t-201.5 -167 t-120 -233.5t-40 -261q0 -147 46 -251.5t128 -171.5t195 -96.5t246 -29.5q63 0 123.5 11.5t112.5 28.5t96 38.5t75 44.5l58 -88q-37 -23 -85.5 -48.5t-109.5 -47t-137 -35t-170 -13.5q-135 0 -261 36t-223.5 115t-156 204t-58.5 303zM563 616q0 -96 42 -139t120 -43 q61 0 113.5 38t92.5 99.5t62.5 140.5t22.5 162v3q0 18 -9.5 42.5t-30 46t-51 37t-75.5 15.5q-76 0 -130 -38t-89 -96.5t-51.5 -129t-16.5 -138.5z" />
<glyph unicode="A" horiz-adv-x="1306" d="M10 0l559 1434h168l559 -1434h-149l-166 428h-657l-166 -428h-148zM371 551h563l-281 735z" />
<glyph unicode="B" horiz-adv-x="1130" d="M158 0v1434h383q195 0 307.5 -95.5t112.5 -279.5q0 -86 -33 -141.5t-74 -90.5q-47 -39 -106 -63v-4q37 -6 86 -28.5t93 -65.5t75.5 -108t31.5 -157q0 -113 -35.5 -189.5t-99 -123.5t-152 -67.5t-194.5 -20.5h-395zM299 123h231q72 0 137.5 14.5t116 47t80 84.5t29.5 130 q0 131 -79 211t-255 80h-260v-567zM299 813h229q61 0 114.5 12.5t92.5 42t61.5 76.5t22.5 115q0 127 -82 189.5t-209 62.5h-229v-498z" />
<glyph unicode="C" horiz-adv-x="1441" d="M86 717q0 154 58.5 289t158.5 235t235.5 158.5t288.5 58.5q86 0 158 -17.5t132.5 -48t111.5 -70.5t94 -83l-94 -90q-72 78 -178.5 132t-223.5 54q-145 0 -256.5 -52t-187.5 -139t-116 -198.5t-40 -228.5t41 -228.5t119 -198.5t188.5 -139.5t251.5 -52.5q135 0 247 64.5 t198 175.5l102 -86q-227 -276 -547 -277q-154 0 -289 58.5t-235 159t-158.5 235.5t-58.5 289z" />
<glyph unicode="D" horiz-adv-x="1349" d="M158 0v1434h356q203 0 345 -53.5t232.5 -147.5t131.5 -224t41 -286q0 -348 -180.5 -535.5t-569.5 -187.5h-356zM299 123h205q170 0 286.5 40t189.5 116.5t105.5 188.5t32.5 255q0 129 -32.5 237.5t-106.5 186.5t-191.5 121t-287.5 43h-201v-1188z" />
<glyph unicode="E" horiz-adv-x="1112" d="M158 0v1434h854l-11 -123h-702v-510h598v-123h-598v-555h723l10 -123h-874z" />
<glyph unicode="F" horiz-adv-x="1079" d="M158 0v1434h856l-10 -123h-705v-529h600v-123h-600v-659h-141z" />
<glyph unicode="G" horiz-adv-x="1533" d="M86 715q0 154 58.5 289t157.5 236t234.5 159.5t288.5 58.5q145 0 268.5 -44t256.5 -150l-84 -99q-33 27 -79 57.5t-103.5 55.5t-123 41t-135.5 16q-143 0 -253.5 -52t-187.5 -139t-117 -198.5t-40 -230.5q0 -123 44 -234.5t123 -196.5t188.5 -135.5t242.5 -50.5 q98 0 171 14.5t123 33t80 38t46 29.5v416h-346l10 123h477v-605q-29 -20 -76.5 -48.5t-116.5 -56.5t-161 -47.5t-207 -19.5q-154 0 -289 58.5t-234 158t-157.5 234.5t-58.5 289z" />
<glyph unicode="H" horiz-adv-x="1366" d="M158 0v1434h141v-623h768v623h141v-1434h-141v688h-768v-688h-141z" />
<glyph unicode="I" horiz-adv-x="456" d="M158 0v1434h141v-1434h-141z" />
<glyph unicode="J" horiz-adv-x="722" d="M43 20l10 130q25 -4 75 -10.5t97 -6.5q115 0 162 69.5t47 198.5v1033h141v-1055q0 -180 -88 -279.5t-258 -99.5q-59 0 -108 7t-78 13z" />
<glyph unicode="K" horiz-adv-x="1177" d="M158 0v1434h141v-629l647 629h193l-697 -670l760 -764h-190l-713 721v-721h-141z" />
<glyph unicode="L" horiz-adv-x="954" d="M158 0v1434h141v-1311h633l10 -123h-784z" />
<glyph unicode="M" horiz-adv-x="1740" d="M158 0v1434h174l538 -1289l539 1289h174v-1434h-141v1178l-490 -1178h-164l-489 1178v-1178h-141z" />
<glyph unicode="N" horiz-adv-x="1439" d="M158 0v1434h180l803 -1227v1227h141v-1434h-166l-817 1255v-1255h-141z" />
<glyph unicode="O" horiz-adv-x="1654" d="M86 715v4q0 154 58.5 289t157.5 234t234.5 157.5t288.5 58.5h4q154 0 289 -58.5t234.5 -157.5t158 -234.5t58.5 -288.5v-4q0 -154 -58.5 -289t-158 -234.5t-234.5 -158t-289 -58.5h-4q-154 0 -289 58.5t-234 158t-157.5 234.5t-58.5 289zM233 709q0 -129 49.5 -241 t130.5 -193.5t187.5 -129t222.5 -47.5h4h2q117 0 224.5 47.5t188.5 129t130 193.5t49 241v16q0 127 -48 238.5t-129 193.5t-187.5 130t-225.5 48h-4h-4q-119 0 -225 -48t-187 -130t-129.5 -193.5t-48.5 -238.5v-16z" />
<glyph unicode="P" horiz-adv-x="980" d="M158 0v1434h293q129 0 220 -30t148.5 -82t84 -120.5t26.5 -148.5q0 -92 -26.5 -166t-86 -125t-153 -79t-224.5 -28h-141v-655h-141zM299 778h158q74 0 134 12.5t104 44t68.5 85t24.5 133.5q0 135 -87 196.5t-252 61.5h-150v-533z" />
<glyph unicode="Q" horiz-adv-x="1652" d="M86 715q0 154 58.5 289t157.5 236t234.5 159.5t288.5 58.5q160 0 295 -58.5t235.5 -159.5t157 -236.5t56.5 -288.5q0 -96 -26.5 -183.5t-73 -162t-108 -137t-130.5 -109.5h389l10 -123h-803h-2q-160 0 -295 60.5t-234 159.5t-154.5 228.5t-55.5 266.5zM233 713 q0 -115 47.5 -220.5t128 -188.5t188.5 -132t228 -49q119 0 227.5 49t190.5 130t130 187.5t48 223.5q0 135 -48 248.5t-129 196.5t-189.5 130t-229.5 47q-117 0 -224 -47t-189 -130t-130.5 -196.5t-48.5 -248.5z" />
<glyph unicode="R" horiz-adv-x="1155" d="M158 0v1434h309q154 0 246 -34t141 -88.5t65.5 -123t16.5 -135.5q0 -76 -20.5 -131.5t-51 -96.5t-67.5 -67.5t-72 -42.5v-4q45 -23 69.5 -55.5t41.5 -65.5l272 -590h-152l-211 457q-14 31 -31.5 66.5t-45 64t-66.5 48t-96 19.5h-207v-655h-141zM299 778h176 q74 0 132.5 12.5t100.5 43t64.5 84t22.5 135.5q0 135 -87 196.5t-253 61.5h-156v-533z" />
<glyph unicode="S" horiz-adv-x="1079" d="M72 39l32 131q61 -16 132 -27q59 -10 134.5 -18t159.5 -8q156 0 247 73.5t91 194.5q0 57 -28.5 101t-76.5 80t-109.5 64.5t-127.5 57.5q-68 29 -141.5 66t-132.5 85t-98 109.5t-39 138.5q0 86 31.5 153t86 112t124 68.5t147.5 23.5q74 0 144.5 -1t132 -3t109.5 -3t77 -3 l-33 -138q-53 2 -119 7q-55 2 -129 4t-158 2q-53 0 -101 -15.5t-85 -43t-58.5 -69.5t-21.5 -94q0 -47 26.5 -84.5t70.5 -69.5t101.5 -58.5t117.5 -53.5q74 -35 151.5 -72.5t141 -89t104.5 -118t41 -156.5q0 -92 -35 -168t-98.5 -130t-152.5 -83t-200 -29q-188 0 -300.5 24 t-157.5 40z" />
<glyph unicode="T" horiz-adv-x="1150" d="M20 1311l9 123h1101l-10 -123h-479v-1311h-141v1311h-480z" />
<glyph unicode="U" horiz-adv-x="1347" d="M152 516v918h141v-924q0 -186 97 -293.5t284 -107.5q186 0 283.5 107.5t97.5 293.5v924h141v-918q0 -258 -137 -399.5t-385 -141.5t-385 141.5t-137 399.5z" />
<glyph unicode="V" horiz-adv-x="1251" d="M10 1434h152l465 -1287l469 1287h145l-526 -1434h-178z" />
<glyph unicode="W" horiz-adv-x="1785" d="M16 1434h136l331 -1201l336 1201h148l333 -1201l334 1201h135l-395 -1434h-145l-334 1227l-338 -1227h-145z" />
<glyph unicode="X" horiz-adv-x="1200" d="M10 0l512 721l-504 713h164l420 -605l418 605h162l-502 -713l510 -721h-166l-422 610l-424 -610h-168z" />
<glyph unicode="Y" horiz-adv-x="1202" d="M6 1434h162l432 -650l434 650h162l-524 -777v-657h-142v657z" />
<glyph unicode="Z" horiz-adv-x="1136" d="M59 0v123l811 1188h-761l-11 123h936v-123l-807 -1188h840l10 -123h-1018z" />
<glyph unicode="[" horiz-adv-x="536" d="M170 -348v1857h322v-98h-203v-1661h203v-98h-322z" />
<glyph unicode="\" horiz-adv-x="804" d="M6 1501h135l658 -1585h-137z" />
<glyph unicode="]" horiz-adv-x="536" d="M170 -250h203v1661h-203v98h322v-1857h-322v98z" />
<glyph unicode="^" horiz-adv-x="1220" d="M125 610l420 824h131l420 -824h-146l-340 672l-340 -672h-145z" />
<glyph unicode="_" horiz-adv-x="1024" d="M0 -170h1024v-70h-1024v70z" />
<glyph unicode="`" horiz-adv-x="438" d="M33 1833h180l184 -301h-100z" />
<glyph unicode="a" horiz-adv-x="987" d="M72 283q0 74 26.5 138t76.5 111.5t121 74t157 26.5q66 0 139.5 -19.5t134.5 -54.5v137q0 66 -22.5 112t-59.5 74.5t-83 41t-91 12.5q-80 0 -151.5 -29.5t-116.5 -52.5l-49 96q25 14 59.5 31.5t79.5 32t97 25t110 10.5q74 0 138 -19.5t113.5 -58.5t77 -100.5t27.5 -143.5 v-727h-129v78q-16 -10 -46 -27.5t-70 -34t-87 -29t-100 -12.5q-72 0 -135.5 20.5t-111.5 60.5t-76.5 96.5t-28.5 130.5zM207 293q0 -47 18.5 -85t50 -64.5t73.5 -41t89 -14.5q57 0 108.5 15.5t92.5 35.5q47 23 88 54v247q-53 35 -120.5 57.5t-139.5 22.5q-55 0 -102.5 -16.5 t-83 -46t-55 -71.5t-19.5 -93z" />
<glyph unicode="b" horiz-adv-x="1101" d="M139 0v1536h129v-588q88 53 165 77t169 24q106 0 186 -42t131.5 -116t77 -174.5t25.5 -214.5q0 -115 -27.5 -211t-82 -166t-135.5 -110t-187 -40q-104 0 -189.5 36t-132.5 67v-78h-129zM268 199q25 -23 61 -42.5t76.5 -35t82.5 -24.5t79 -9q152 0 236 103.5t84 308.5 q0 201 -77 318.5t-224 117.5q-53 0 -101.5 -11.5t-89.5 -27.5t-72.5 -35.5t-54.5 -34.5v-628z" />
<glyph unicode="c" horiz-adv-x="1085" d="M76 514q0 113 42 211t115.5 170t173 113t211.5 41q100 0 203 -40t195 -139l-88 -86q-63 66 -137 106t-177 40q-90 0 -164.5 -34t-128 -91t-83 -132t-29.5 -157t27.5 -157.5t80 -134t127 -94.5t170.5 -36q92 0 176 38t162 136l92 -82q-94 -115 -201.5 -163t-224.5 -48 t-216 42t-171.5 115t-113.5 171t-41 211z" />
<glyph unicode="d" horiz-adv-x="1101" d="M80 502q0 115 25.5 215t76.5 174t130 116t188 42q92 0 168.5 -24t165.5 -77v588h129v-1536h-129v78q-47 -31 -132.5 -67t-189.5 -36q-106 0 -187 40t-135.5 110t-82 166t-27.5 211zM215 500q0 -205 84 -308.5t236 -103.5q37 0 78.5 9t82.5 24.5t77 35t61 42.5v628 q-23 14 -54.5 34t-72.5 36t-89.5 27.5t-101.5 11.5q-147 0 -224 -118t-77 -318z" />
<glyph unicode="e" horiz-adv-x="1112" d="M76 506q0 111 33.5 210t98 173t158 117t209.5 43q106 0 193.5 -35t149 -105.5t95.5 -179t34 -256.5h-836q0 -68 25.5 -135.5t78 -121.5t129 -88t179.5 -34q86 0 168.5 31t156.5 96l80 -86q-92 -78 -189.5 -119t-226.5 -41q-119 0 -218 41t-169.5 113t-109.5 169t-39 208z M211 596h684q0 76 -24.5 138.5t-68.5 107.5t-103.5 69.5t-127.5 24.5q-76 0 -138 -27.5t-109.5 -75t-76 -108.5t-36.5 -129z" />
<glyph unicode="f" horiz-adv-x="614" d="M35 911l8 113h137v180q0 94 26.5 158.5t68.5 102.5t92.5 54.5t99.5 16.5q63 0 106 -10t56 -15l-13 -114q-14 4 -57 14t-92 10q-47 0 -77 -17.5t-48 -46t-25.5 -65.5t-7.5 -75v-193h277l-11 -113h-266v-911h-129v911h-145z" />
<glyph unicode="g" horiz-adv-x="1001" d="M70 -330l34 105q78 -47 171.5 -82t236.5 -35q82 0 138.5 17.5t91 45t50 61.5t15.5 66q0 37 -8 66t-29.5 48.5t-60.5 28.5t-101 9h-233q-111 0 -167 46t-56 128q0 41 15 79t34.5 66.5t36 45t18.5 16.5q-14 8 -44 31.5t-60.5 64.5t-54 97.5t-23.5 130.5q0 59 21.5 120.5 t64.5 110.5t106.5 81t149.5 32q88 0 182 -32t168 -73v80h125v-356q0 -160 -94.5 -255.5t-286.5 -95.5q-35 0 -63.5 2.5t-49.5 6.5q-23 4 -43 10q-4 -4 -16 -16.5t-25.5 -32t-25 -42t-11.5 -42.5q0 -37 26 -62.5t104 -25.5h223q68 0 125 -11.5t99 -41t64.5 -77.5t22.5 -122 q0 -141 -113.5 -230.5t-332.5 -89.5q-80 0 -149 14.5t-123 35t-93 42t-59 35.5zM209 700q0 -72 28.5 -123t72.5 -83.5t95.5 -47t94.5 -14.5q119 0 192.5 64.5t73.5 169.5v159q-29 16 -63.5 36t-74.5 36t-84 27.5t-87 11.5q-72 0 -119 -24.5t-76 -61.5t-41 -78t-12 -72z" />
<glyph unicode="h" horiz-adv-x="1067" d="M139 0v1536h129v-571q8 4 34 18t63.5 28.5t85 26t98.5 11.5q66 0 134.5 -15.5t123.5 -53.5t91 -101.5t36 -159.5v-719h-129v692q0 70 -26.5 117t-68.5 75.5t-93.5 40t-100.5 11.5q-57 0 -124.5 -20.5t-123.5 -53.5v-862h-129z" />
<glyph unicode="i" horiz-adv-x="444" d="M139 0v1024h129v-1024h-129zM139 1255v179h129v-179h-129z" />
<glyph unicode="j" horiz-adv-x="407" d="M-190 -395l10 106q23 -8 49 -14q23 -6 51.5 -10t59.5 -4q45 0 75.5 17t49 48t26.5 72t8 86v1118h129v-1114q0 -100 -26.5 -166t-67.5 -104.5t-93 -54t-101 -15.5q-41 0 -72 5t-53 11q-25 8 -45 19zM139 1255v179h129v-179h-129z" />
<glyph unicode="k" horiz-adv-x="892" d="M139 0v1536h129v-893l400 381h166l-480 -453l564 -571h-179l-471 481v-481h-129z" />
<glyph unicode="l" horiz-adv-x="407" d="M139 0v1536h129v-1536h-129z" />
<glyph unicode="m" horiz-adv-x="1654" d="M139 0v1024h129v-59q6 4 28.5 17t60.5 28.5t87.5 27t106.5 11.5q72 0 147.5 -27t137.5 -98q66 51 149.5 88t192.5 37q51 0 111.5 -15.5t111.5 -53.5t86 -104.5t35 -166.5v-709h-129v698q0 57 -21.5 101.5t-58.5 75t-84 46t-99 15.5q-55 0 -120.5 -22.5t-137.5 -69.5 q10 -20 16.5 -63.5t6.5 -80.5v-700h-129v698q0 59 -22.5 104.5t-60.5 75t-86 44t-99 14.5q-41 0 -82 -12.5t-74 -26.5q-37 -18 -74 -39v-858h-129z" />
<glyph unicode="n" horiz-adv-x="1067" d="M139 0v1024h129v-59q8 4 34 18t63.5 28.5t85 26t98.5 11.5q66 0 134.5 -15.5t123.5 -53.5t91 -101.5t36 -159.5v-719h-129v692q0 70 -26.5 117t-68.5 75.5t-93.5 40t-100.5 11.5q-57 0 -124.5 -20.5t-123.5 -53.5v-862h-129z" />
<glyph unicode="o" horiz-adv-x="1224" d="M76 510v6q2 113 44 210t114.5 169t170 113t207.5 41h2q111 0 208.5 -42t170 -115t114.5 -170t42 -208v-8q-2 -111 -44 -208t-114.5 -169t-170 -113t-208.5 -41q-113 0 -210 41t-169.5 114t-114.5 170t-42 210zM209 514q0 -84 28.5 -159.5t81 -133t126 -92.5t165.5 -35h2 q90 0 164 34t126 90t82 131t32 157v8q0 82 -30 156.5t-82 132t-125.5 92.5t-164.5 35h-4q-90 0 -163.5 -35t-127 -92.5t-82 -132t-28.5 -156.5z" />
<glyph unicode="p" horiz-adv-x="1101" d="M139 -461v1485h129v-78q47 31 132 67t190 36q106 0 187 -40t135.5 -110t82 -167t27.5 -210q0 -115 -25.5 -215t-77 -174t-131 -116t-186.5 -42q-92 0 -169 24t-165 77v-537h-129zM268 197q23 -16 54.5 -35t72.5 -35t89 -27.5t102 -11.5q147 0 224 118t77 318 q0 205 -84 308.5t-236 103.5q-37 0 -79 -9t-82.5 -24.5t-76.5 -35t-61 -42.5v-628z" />
<glyph unicode="q" horiz-adv-x="1101" d="M80 522q0 113 27.5 210t82 167t135.5 110t187 40q104 0 189 -36t133 -67v78h129v-1485h-129v537q-88 -53 -165 -77t-169 -24q-109 0 -188 42t-130 116t-76.5 174.5t-25.5 214.5zM215 524q0 -201 77 -318.5t224 -117.5q53 0 101.5 11.5t89.5 27.5t72.5 34.5t54.5 35.5v628 q-25 23 -61 42.5t-77 35t-83 24.5t-78 9q-152 0 -236 -103.5t-84 -308.5z" />
<glyph unicode="r" horiz-adv-x="667" d="M139 0v1024h119v-150q4 6 31.5 34t72 58.5t105.5 56.5t133 26q10 0 20.5 -1t20.5 -4l-31 -147q-16 4 -33.5 6t-31.5 2q-45 0 -87 -13t-79 -33.5t-65.5 -42t-45.5 -40.5v-776h-129z" />
<glyph unicode="s" horiz-adv-x="835" d="M51 45l33 107q29 -14 107.5 -39t199.5 -25q117 0 181.5 42t64.5 128q0 63 -40 102t-101.5 69t-131 55.5t-131 62.5t-101.5 92t-40 145q0 66 25.5 114t67.5 79t97.5 46t116.5 15q92 0 176 -5.5t136 -10.5l-25 -113q-45 4 -122 9.5t-152 5.5q-35 0 -69 -7.5t-61.5 -25 t-44 -44t-16.5 -63.5q0 -59 41 -97t102.5 -65.5t132 -53t132 -63.5t102.5 -93.5t41 -143.5q0 -74 -27.5 -128t-77 -91t-117 -54.5t-147.5 -17.5q-84 0 -144 8.5t-102 18.5t-68 22.5t-38 18.5z" />
<glyph unicode="t" horiz-adv-x="686" d="M59 911l11 113h137v260l129 27v-287h289l-11 -113h-278v-630q0 -90 32.5 -140.5t110.5 -50.5q39 0 79 9.5t58 13.5l11 -113q-20 -6 -62.5 -15.5t-107.5 -9.5q-86 0 -136.5 29t-76 79t-31.5 120.5t-6 154.5v553h-148z" />
<glyph unicode="u" horiz-adv-x="1067" d="M133 305v719h129v-692q0 -72 26.5 -118t68.5 -74.5t93.5 -40t100.5 -11.5q57 0 124.5 20.5t123.5 53.5v862h129v-1024h-129v59q-8 -4 -34 -18t-63.5 -28.5t-85 -26t-98.5 -11.5q-66 0 -134.5 15.5t-123.5 53.5t-91 101.5t-36 159.5z" />
<glyph unicode="v" horiz-adv-x="966" d="M14 1024h133l340 -944q37 98 79 220t87 249t88 250t80 225h131q-94 -250 -186 -512t-184 -512h-197z" />
<glyph unicode="w" horiz-adv-x="1441" d="M25 1024h127l251 -903q27 100 60 215t65.5 233.5t64.5 235.5t60 219h133l252 -903l250 903h129q-76 -254 -142.5 -512t-141.5 -512h-191l-223 819l-221 -819h-191z" />
<glyph unicode="x" horiz-adv-x="925" d="M8 0l379 512l-364 512h151l289 -418l289 418h151l-364 -512l379 -512h-160l-295 414l-295 -414h-160z" />
<glyph unicode="y" horiz-adv-x="1052" d="M123 305v719h129v-692q0 -72 26.5 -118t68.5 -74.5t93.5 -40t100.5 -11.5q57 0 124.5 20.5t122.5 53.5v862h130v-1130q0 -111 -44.5 -174.5t-105.5 -97.5t-128 -43t-110 -9q-119 0 -208 29.5t-134 48.5l33 104q43 -16 80 -29.5t73 -22.5t72.5 -13t83.5 -4 q92 0 144.5 25.5t78 63.5t30.5 83t5 82v122q-8 -4 -33.5 -18t-63.5 -28.5t-85 -26t-98 -11.5q-66 0 -134.5 15.5t-123.5 53.5t-91 101.5t-36 159.5z" />
<glyph unicode="z" horiz-adv-x="950" d="M57 0v113l631 798h-584l-8 113h752v-111l-633 -800h664l8 -113h-830z" />
<glyph unicode="{" horiz-adv-x="708" d="M72 518v144q66 0 115 52t49 158v406q0 61 16 105t44 72t62.5 41t71.5 13h145v-98h-104q-66 0 -91.5 -40t-25.5 -101v-416q0 -70 -21.5 -118t-51 -78.5t-59 -46t-48.5 -19.5v-4q18 -2 48 -15.5t59.5 -43t51 -80t21.5 -125.5v-422q0 -31 4 -57.5t17.5 -48t37 -34 t62.5 -12.5h100v-98h-141q-39 0 -74.5 13t-63.5 41t-44 71t-16 102v426q0 111 -49.5 162t-114.5 51z" />
<glyph unicode="|" horiz-adv-x="387" d="M139 -512v2048h109v-2048h-109z" />
<glyph unicode="}" horiz-adv-x="708" d="M72 -250h100q39 0 62.5 12.5t37 34t17.5 48t4 57.5v422q0 76 21.5 126t51 79.5t59.5 43t48 15.5v4q-18 4 -48 19.5t-59.5 46t-51 78.5t-21.5 118v416q0 61 -25.5 101t-91.5 40h-104v98h145q37 0 72 -13t62.5 -41t44 -72t16.5 -105v-406q0 -106 49 -158t114 -52v-144 q-66 0 -114.5 -51t-48.5 -162v-426q0 -59 -16.5 -102t-44 -71t-63.5 -41t-75 -13h-141v98z" />
<glyph unicode="~" horiz-adv-x="1251" d="M147 512q47 59 106.5 101t149.5 42q53 0 105.5 -13t103.5 -36q20 -8 48 -21.5t60 -25.5t67.5 -21.5t70.5 -9.5q51 0 100.5 37t83.5 76l62 -78q-47 -59 -106.5 -101t-149.5 -42q-59 0 -116.5 19.5t-114 44t-109.5 44t-105 19.5q-66 0 -107.5 -30t-86.5 -81 q-20 25 -32.5 39t-29.5 37z" />
<glyph unicode="&#xa1;" horiz-adv-x="444" d="M147 -410l25 1121h100l25 -1121h-150zM152 883v141h141v-141h-141z" />
<glyph unicode="&#xa2;" horiz-adv-x="1085" d="M76 514q0 94 29.5 179t84 152.5t128 115t161.5 69.5v164h111v-147q6 0 13 1t15 1q100 0 203 -40t195 -139l-88 -86q-63 66 -137 106t-177 40h-24v-836h24q92 0 176 38t162 136l92 -82q-94 -115 -201.5 -163t-224.5 -48h-28v-231h-111v250q-90 20 -163.5 69.5t-127 118 t-83 153.5t-29.5 179zM209 516q0 -66 18.5 -129t52 -116.5t84 -94.5t115.5 -61v792q-61 -23 -111.5 -61.5t-86 -89.5t-54 -112.5t-18.5 -127.5z" />
<glyph unicode="&#xa3;" horiz-adv-x="999" d="M96 0v123h187v635h-162v98h162v123q0 221 119.5 348t330.5 127q78 0 127 -9t96 -26l-12 -127q-41 18 -93 31.5t-116 13.5q-154 0 -232.5 -94t-78.5 -254v-133h330v-98h-330v-635h510l10 -123h-848z" />
<glyph unicode="&#xa4;" horiz-adv-x="1089" d="M45 1130l86 91l115 -115q61 47 137 74.5t162 27.5t161.5 -27.5t137.5 -74.5l114 115l86 -91l-114 -114q47 -61 74.5 -136t27.5 -161t-27.5 -162t-74.5 -139l108 -109l-88 -88l-108 109q-61 -47 -136 -74t-161 -27t-162 27t-137 74l-107 -109l-88 88l109 109 q-47 63 -75 139t-28 162t27 160.5t74 136.5zM197 719q0 -72 27.5 -135.5t74.5 -110.5t110.5 -74.5t135.5 -27.5q74 0 137 27.5t111.5 74.5t76 110.5t27.5 135.5q0 74 -27.5 137.5t-76 111.5t-112 75.5t-136.5 27.5q-72 0 -135.5 -27.5t-110.5 -75.5t-74.5 -111.5 t-27.5 -137.5z" />
<glyph unicode="&#xa5;" horiz-adv-x="1202" d="M6 1434h162l432 -650l434 650h162l-446 -662h321v-123h-399v-274h399v-123h-399v-252h-142v252h-399v123h399v274h-399v123h322z" />
<glyph unicode="&#xa6;" horiz-adv-x="387" d="M139 367h109v-879h-109v879zM139 655v881h109v-881h-109z" />
<glyph unicode="&#xa7;" horiz-adv-x="1103" d="M193 -158l24 107q49 -12 102 -21q47 -8 106.5 -14t125.5 -6q121 0 191.5 57.5t70.5 149.5q0 45 -21.5 78.5t-58.5 60.5t-85 49.5t-99 44.5q-53 23 -110.5 52.5t-104.5 67.5t-78 85t-31 109q0 102 51.5 166.5t129.5 93.5q-74 43 -127.5 101t-53.5 142q0 70 24.5 122 t66.5 87t97.5 52.5t116.5 17.5q117 0 217.5 -2t147.5 -6l-27 -111q-43 2 -94 4q-43 2 -100.5 4t-122.5 2q-84 0 -145.5 -45t-61.5 -125q0 -33 22.5 -61.5t57.5 -54t78 -48t86 -40.5q57 -25 118.5 -56t111.5 -70.5t82 -93t32 -123.5q0 -90 -38 -157.5t-108 -108.5 q61 -43 103.5 -100t42.5 -137q0 -147 -103.5 -234.5t-277.5 -87.5q-147 0 -235.5 18.5t-122.5 30.5zM344 662q0 -33 22.5 -62t57.5 -54.5t78 -48t86 -40.5l67 -31q74 23 116 71.5t42 120.5q0 39 -17.5 71t-48 57.5t-70.5 46t-85 41.5h-41q-41 0 -79 -12.5t-66.5 -34 t-45 -54.5t-16.5 -71z" />
<glyph unicode="&#xa8;" horiz-adv-x="761" d="M158 1561v153h153v-153h-153zM451 1561v153h153v-153h-153z" />
<glyph unicode="&#xa9;" horiz-adv-x="1667" d="M92 715q0 156 58.5 291t159 235t234.5 158.5t287 58.5q156 0 291 -58.5t235.5 -158.5t159 -235t58.5 -291q0 -154 -58.5 -288t-159 -234.5t-235.5 -159t-291 -58.5q-154 0 -287.5 58.5t-234 159t-159 234.5t-58.5 288zM190 715q0 -133 50.5 -249t138.5 -204t203.5 -138 t248.5 -50t251 50t205 138t138.5 204t51.5 249t-51.5 250.5t-138.5 204.5t-204.5 138.5t-251.5 51.5q-133 0 -248.5 -51.5t-203.5 -138.5t-138.5 -204.5t-50.5 -250.5zM373 723q0 102 36.5 188t99 149.5t147.5 98.5t184 35q100 0 182 -39t152 -113l-68 -65 q-49 66 -115.5 94.5t-150.5 28.5q-72 0 -138.5 -28t-116.5 -77t-80 -118.5t-30 -155.5q0 -84 30 -154.5t80 -122t116.5 -80t138.5 -28.5q82 0 151.5 31.5t118.5 97.5l68 -70q-70 -76 -153 -114.5t-185 -38.5q-98 0 -183.5 36.5t-148 101t-99 153t-36.5 190.5z" />
<glyph unicode="&#xaa;" horiz-adv-x="567" d="M41 989q0 92 63.5 154.5t174.5 62.5q37 0 76.5 -9t76.5 -30v72q0 37 -13 63.5t-33.5 42t-46.5 22.5t-50 7q-45 0 -91 -18.5t-75 -34.5l-35 72q31 20 90.5 42.5t126.5 22.5q92 0 156.5 -48t64.5 -155v-444h-94v41q-27 -16 -73 -35.5t-99 -19.5q-90 0 -154.5 50t-64.5 142z M137 995q0 -53 39 -83.5t94 -30.5q31 0 59.5 8t51.5 18q27 12 51 29v143q-29 18 -66.5 30.5t-78.5 12.5q-66 0 -108 -33.5t-42 -93.5z" />
<glyph unicode="&#xab;" horiz-adv-x="862" d="M72 512l286 399h119l-260 -399l260 -399h-119zM375 512l287 399h118l-260 -399l260 -399h-118z" />
<glyph unicode="&#xac;" horiz-adv-x="1257" d="M117 682v127h1024v-555h-125v428h-899z" />
<glyph unicode="&#xad;" horiz-adv-x="622" d="M61 457v110h500v-110h-500z" />
<glyph unicode="&#xae;" horiz-adv-x="1667" d="M92 715q0 156 58.5 291t159 235t234.5 158.5t287 58.5q156 0 291 -58.5t235.5 -158.5t159 -235t58.5 -291q0 -154 -58.5 -288t-159 -234.5t-235.5 -159t-291 -58.5q-154 0 -287.5 58.5t-234 159t-159 234.5t-58.5 288zM190 715q0 -133 50.5 -249t138.5 -204t203.5 -138 t248.5 -50t251 50t205 138t138.5 204t51.5 249t-51.5 250.5t-138.5 204.5t-204.5 138.5t-251.5 51.5q-133 0 -248.5 -51.5t-203.5 -138.5t-138.5 -204.5t-50.5 -250.5zM571 270v889h242q158 0 235.5 -56t77.5 -183q0 -59 -22.5 -102.5t-55 -72t-71.5 -44t-72 -17.5l256 -414 h-106l-246 410h-139v-410h-99zM670 764h155q88 0 144.5 39t56.5 115q0 51 -17.5 82.5t-46 48t-63.5 21.5t-70 5h-159v-311z" />
<glyph unicode="&#xaf;" horiz-adv-x="577" d="M0 1288v78h578v-78h-578z" />
<glyph unicode="&#xb0;" horiz-adv-x="815" d="M143 1194q0 55 20.5 103.5t56.5 84t84 56t104 20.5q55 0 103 -20.5t84 -56t56.5 -84t20.5 -103.5t-20.5 -103.5t-56.5 -84t-84 -56t-103 -20.5t-103.5 20.5t-84.5 56t-56.5 84t-20.5 103.5zM217 1194q0 -80 55.5 -135t135.5 -55t135 55t55 135t-55.5 135t-134.5 55 q-80 0 -135.5 -55t-55.5 -135z" />
<glyph unicode="&#xb1;" horiz-adv-x="1228" d="M102 0v127h1024v-127h-1024zM102 614v127h449v359h127v-359h448v-127h-448v-374h-127v374h-449z" />
<glyph unicode="&#xb2;" horiz-adv-x="696" d="M74 614v109q147 152 229 239t122 135t48 71.5t8 52.5q0 43 -31.5 85t-99.5 42q-37 0 -62.5 -14.5t-44 -35t-28.5 -43t-16 -41.5l-115 41q8 29 26.5 64t51.5 65.5t79 52t109 21.5q113 0 186.5 -60.5t73.5 -176.5q0 -41 -17.5 -82t-59 -96.5t-113.5 -131t-180 -186.5h366 l17 -111h-549z" />
<glyph unicode="&#xb3;" horiz-adv-x="696" d="M59 766l91 59q31 -45 76.5 -84t121.5 -39q63 0 109.5 39t46.5 99q0 76 -45 108.5t-121 32.5h-135l14 111h119q61 0 97 37.5t36 89.5q0 43 -35 86t-108 43q-57 0 -96.5 -37t-57.5 -76l-109 37q14 35 39 68.5t59 59t74.5 42t88.5 16.5q61 0 112 -18.5t87 -50t55.5 -74.5 t19.5 -90q0 -66 -37 -110t-78 -66q72 -23 111 -79.5t39 -115.5q0 -57 -23.5 -105.5t-62.5 -83t-91.5 -54t-107.5 -19.5q-57 0 -102 15.5t-79 40t-60.5 55t-47.5 63.5z" />
<glyph unicode="&#xb4;" horiz-adv-x="438" d="M41 1532l184 301h181l-265 -301h-100z" />
<glyph unicode="&#xb5;" horiz-adv-x="1073" d="M139 -461v1485h129v-692q0 -72 27 -118t69 -74.5t93 -40t100 -11.5q57 0 125 20.5t123 53.5v862h129v-1024h-129v59q-8 -4 -34 -18t-63.5 -28.5t-85 -26t-98.5 -11.5q-66 0 -133 15.5t-123 52.5v-504h-129z" />
<glyph unicode="&#xb6;" horiz-adv-x="1245" d="M51 1059q0 195 120 285t337 90h573v-1639h-159v1522h-256v-1522h-160v897q-102 0 -186 19.5t-143.5 62.5t-92.5 112.5t-33 172.5z" />
<glyph unicode="&#xb8;" horiz-adv-x="397" d="M0 -383l31 59q33 -14 61.5 -22t69.5 -8q20 0 42.5 5t42 16t33 30.5t13.5 48.5q0 45 -34 65.5t-73 20.5q-25 0 -44 -8t-29 -12l-41 36l108 177h80l-78 -134q35 8 73 5.5t69.5 -19t52 -46.5t20.5 -73q0 -49 -20.5 -83.5t-53 -56t-74.5 -32t-85 -10.5q-86 0 -164 41z" />
<glyph unicode="&#xb9;" horiz-adv-x="696" d="M129 1247l178 187h156v-820h-123v658l-139 -117z" />
<glyph unicode="&#xba;" horiz-adv-x="649" d="M45 1180q0 57 21.5 108t59.5 89t88 59.5t110 21.5q57 0 108 -21.5t90 -59.5t60.5 -89t21.5 -108q0 -59 -21.5 -109.5t-60.5 -87.5t-90 -58.5t-108 -21.5q-59 0 -109.5 21.5t-88.5 58.5t-59.5 87.5t-21.5 109.5zM137 1180q0 -84 51.5 -139.5t135.5 -55.5q86 0 136 55.5 t50 139.5q0 86 -51 143t-135 57q-86 0 -136.5 -57t-50.5 -143z" />
<glyph unicode="&#xbb;" horiz-adv-x="862" d="M82 113l260 399l-260 399h119l286 -399l-286 -399h-119zM385 113l260 399l-260 399h119l287 -399l-287 -399h-119z" />
<glyph unicode="&#xbc;" horiz-adv-x="1572" d="M84 1247l178 187h156v-820h-123v658l-139 -117zM281 0l770 1434h131l-768 -1434h-133zM850 172v115l291 532h196v-532h144l8 -115h-152v-172h-123v172h-364zM985 287h229v426z" />
<glyph unicode="&#xbd;" horiz-adv-x="1572" d="M84 1247l178 187h156v-820h-123v658l-139 -117zM254 0l770 1434h131l-768 -1434h-133zM932 0v109q147 152 229 238.5t122 134.5t48 72t8 52q0 43 -31.5 85t-99.5 42q-37 0 -62.5 -14t-44 -34.5t-28.5 -43.5t-16 -41l-115 41q8 29 26.5 63.5t51.5 65.5t79 52.5t109 21.5 q113 0 186.5 -60.5t73.5 -177.5q0 -41 -17 -82t-59 -96t-114 -131t-180 -186h375l16 -111h-557z" />
<glyph unicode="&#xbe;" horiz-adv-x="1572" d="M84 766l90 59q31 -45 77 -84t122 -39q63 0 109 39t46 99q0 76 -45 108.5t-121 32.5h-135l15 111h118q61 0 97.5 37.5t36.5 89.5q0 43 -35 86t-109 43q-57 0 -96 -37t-57 -76l-109 37q14 35 39 68.5t58.5 59t74.5 42t88 16.5q61 0 112.5 -18.5t87.5 -50t55.5 -74.5 t19.5 -90q0 -66 -37 -110t-78 -66q72 -23 110.5 -79.5t38.5 -115.5q0 -57 -23.5 -105.5t-62.5 -83t-91 -54t-107 -19.5q-57 0 -102.5 15.5t-79 40t-60.5 55t-47 63.5zM381 0l770 1434h131l-768 -1434h-133zM850 172v115l291 532h196v-532h144l8 -115h-152v-172h-123v172 h-364zM985 287h229v426z" />
<glyph unicode="&#xbf;" horiz-adv-x="874" d="M74 -98q0 -84 29.5 -146.5t81 -104.5t120 -63.5t148.5 -21.5q160 0 251 84t125 237q-27 6 -43 11.5t-27 8.5t-19.5 5t-18.5 4q-12 -49 -32.5 -92t-53.5 -76t-78 -52.5t-102 -19.5q-111 0 -174.5 61.5t-63.5 170.5q0 61 25.5 113.5t64.5 99.5t84 90t84 86q20 25 37.5 50.5 t30 57t18.5 71.5t6 93v142h-129v-133q0 -74 -17.5 -118t-58.5 -93q-45 -49 -95 -99.5t-93 -107t-71.5 -120t-28.5 -138.5zM432 883v141h141v-141h-141z" />
<glyph unicode="&#xc0;" horiz-adv-x="1306" d="M10 0l559 1434h168l559 -1434h-149l-166 428h-657l-166 -428h-148zM371 551h563l-281 735zM406 1833h180l184 -301h-100z" />
<glyph unicode="&#xc1;" horiz-adv-x="1306" d="M10 0h148l166 428h657l166 -428h149l-559 1434h-168zM371 551l282 735l281 -735h-563zM537 1532l184 301h180l-264 -301h-100z" />
<glyph unicode="&#xc2;" horiz-adv-x="1306" d="M10 0h148l166 428h657l166 -428h149l-559 1434h-168zM358 1532l226 301h139l225 -301h-139l-156 211l-155 -211h-140zM371 551l282 735l281 -735h-563z" />
<glyph unicode="&#xc3;" horiz-adv-x="1306" d="M10 0l559 1434h168l559 -1434h-149l-166 428h-657l-166 -428h-148zM336 1532q4 55 20.5 104.5t42 85t57 56t66.5 20.5t70 -23.5t67.5 -52t63.5 -52t59 -23.5q20 0 36 14t26 36.5t17 49.5t9 51h97q-4 -55 -20.5 -105.5t-42 -86t-59.5 -56t-71 -18.5q-35 0 -68.5 23.5 t-65.5 52t-62.5 52t-57.5 23.5q-20 0 -35.5 -14t-25.5 -36.5t-17.5 -49.5t-9.5 -51h-96zM371 551h563l-281 735z" />
<glyph unicode="&#xc4;" horiz-adv-x="1306" d="M10 0l559 1434h168l559 -1434h-149l-166 428h-657l-166 -428h-148zM371 551h563l-281 735zM430 1561v153h154v-153h-154zM725 1561v153h154v-153h-154z" />
<glyph unicode="&#xc5;" horiz-adv-x="1306" d="M10 0l559 1434h168l559 -1434h-149l-166 428h-657l-166 -428h-148zM371 551h563l-281 735zM467 1749q0 78 54 132t132 54q37 0 71 -15t59.5 -41t41 -59.5t15.5 -70.5t-15.5 -70.5t-41 -59.5t-59.5 -41t-71 -15t-70.5 14t-59 39.5t-41 59.5t-15.5 73zM530 1749 q0 -49 37 -86t86 -37q47 0 85 38t38 85q0 49 -37 86t-86 37t-86 -37t-37 -86z" />
<glyph unicode="&#xc6;" horiz-adv-x="1857" d="M6 0l828 1434h923l-10 -123h-703v-510h598v-123h-598v-555h723l11 -123h-875v428h-493l-244 -428h-160zM481 551h422v735z" />
<glyph unicode="&#xc7;" horiz-adv-x="1441" d="M86 717q0 154 58.5 289t158.5 235t235.5 158.5t288.5 58.5q86 0 158 -17.5t132.5 -48t111.5 -70.5t94 -83l-94 -90q-72 78 -178.5 132t-223.5 54q-145 0 -256.5 -52t-187.5 -139t-116 -198.5t-40 -228.5t41 -228.5t119 -198.5t188.5 -139.5t251.5 -52.5q135 0 247 64.5 t198 175.5l102 -86q-227 -276 -547 -277h-32.5t-32.5 2l-49 -86q35 8 72.5 5.5t69.5 -19t52.5 -46.5t20.5 -73q0 -49 -20.5 -83.5t-53.5 -56t-75 -32t-85 -10.5q-86 0 -164 41l31 59q33 -14 61.5 -22t69.5 -8q20 0 43 5t42.5 16t32.5 30.5t13 48.5q0 45 -33.5 65.5 t-72.5 20.5q-25 0 -44.5 -8t-29.5 -12l-41 36l86 142q-129 25 -239.5 90t-190.5 161.5t-126 218.5t-46 257z" />
<glyph unicode="&#xc8;" horiz-adv-x="1112" d="M158 0v1434h854l-11 -123h-702v-510h598v-123h-598v-555h723l10 -123h-874zM262 1833h180l185 -301h-101z" />
<glyph unicode="&#xc9;" horiz-adv-x="1112" d="M158 0h874l-10 123h-723v555h598v123h-598v510h702l11 123h-854v-1434zM422 1532l184 301h180l-264 -301h-100z" />
<glyph unicode="&#xca;" horiz-adv-x="1112" d="M158 0h874l-10 123h-723v555h598v123h-598v510h702l11 123h-854v-1434zM287 1532l225 301h139l226 -301h-140l-155 211l-156 -211h-139z" />
<glyph unicode="&#xcb;" horiz-adv-x="1112" d="M158 0v1434h854l-11 -123h-702v-510h598v-123h-598v-555h723l10 -123h-874zM360 1561v153h154v-153h-154zM655 1561v153h154v-153h-154z" />
<glyph unicode="&#xcc;" horiz-adv-x="456" d="M-12 1833h180l184 -301h-100zM158 0v1434h141v-1434h-141z" />
<glyph unicode="&#xcd;" horiz-adv-x="456" d="M104 1532l185 301h180l-264 -301h-101zM158 0h141v1434h-141v-1434z" />
<glyph unicode="&#xce;" horiz-adv-x="452" d="M-70 1532l226 301h139l225 -301h-139l-156 211l-155 -211h-140zM156 0h141v1434h-141v-1434z" />
<glyph unicode="&#xcf;" horiz-adv-x="456" d="M4 1561v153h154v-153h-154zM158 0v1434h141v-1434h-141zM299 1561v153h154v-153h-154z" />
<glyph unicode="&#xd0;" horiz-adv-x="1349" d="M4 700v107h154v627h356q203 0 345 -53.5t232.5 -147.5t131.5 -224t41 -286q0 -348 -180.5 -535.5t-569.5 -187.5h-356v700h-154zM299 123h205q170 0 286.5 40t189.5 116.5t105.5 188.5t32.5 255q0 129 -32.5 237.5t-106.5 186.5t-191.5 121t-287.5 43h-201v-504h363v-107 h-363v-577z" />
<glyph unicode="&#xd1;" horiz-adv-x="1439" d="M158 0v1434h180l803 -1227v1227h141v-1434h-166l-817 1255v-1255h-141zM403 1532q4 55 20.5 104.5t42.5 85t57.5 56t66.5 20.5t69.5 -23.5t67.5 -52t63.5 -52t59.5 -23.5q20 0 35.5 14t26 36.5t17.5 49.5t9 51h96q-4 -55 -20.5 -105.5t-42 -86t-59 -56t-70.5 -18.5 q-35 0 -69 23.5t-65.5 52t-62.5 52t-57 23.5q-20 0 -35.5 -14t-26 -36.5t-17.5 -49.5t-9 -51h-97z" />
<glyph unicode="&#xd2;" horiz-adv-x="1654" d="M86 715v4q0 154 58.5 289t157.5 234t234.5 157.5t288.5 58.5h4q154 0 289 -58.5t234.5 -157.5t158 -234.5t58.5 -288.5v-4q0 -154 -58.5 -289t-158 -234.5t-234.5 -158t-289 -58.5h-4q-154 0 -289 58.5t-234 158t-157.5 234.5t-58.5 289zM233 709q0 -129 49.5 -241 t130.5 -193.5t188.5 -129t223.5 -47.5h2h4q117 0 223.5 47.5t187.5 129t130 193.5t49 241v16q0 127 -48 238.5t-129 193.5t-187.5 130t-225.5 48h-4h-4q-119 0 -225 -48t-187 -130t-129.5 -193.5t-48.5 -238.5v-16zM629 1833h180l184 -301h-100z" />
<glyph unicode="&#xd3;" horiz-adv-x="1654" d="M86 715v4q0 154 58.5 289t157.5 234t234.5 157.5t288.5 58.5h4q154 0 289 -58.5t234.5 -157.5t158 -234.5t58.5 -288.5v-4q0 -154 -58.5 -289t-158 -234.5t-234.5 -158t-289 -58.5h-4q-154 0 -289 58.5t-234 158t-157.5 234.5t-58.5 289zM233 709q0 -129 49.5 -241 t130.5 -193.5t187.5 -129t222.5 -47.5h4h2q117 0 224.5 47.5t188.5 129t130 193.5t49 241v16q0 127 -48 238.5t-129 193.5t-187.5 130t-225.5 48h-4h-4q-119 0 -225 -48t-187 -130t-129.5 -193.5t-48.5 -238.5v-16zM662 1532l184 301h180l-264 -301h-100z" />
<glyph unicode="&#xd4;" horiz-adv-x="1654" d="M86 715q0 -154 58.5 -289t157.5 -234.5t234 -158t289 -58.5h4q154 0 289 58.5t234.5 158t158 234.5t58.5 289v4q0 154 -58.5 289t-158 234t-234.5 157.5t-289 58.5h-4q-154 0 -289 -58.5t-234 -157.5t-157.5 -234.5t-58.5 -288.5v-4zM233 709v16q0 127 48.5 238.5 t129.5 193.5t187.5 130t224.5 48h4h4q119 0 225.5 -48t187.5 -130t129 -193.5t48 -238.5v-16q0 -129 -49 -241t-130 -193.5t-187.5 -129t-223.5 -47.5h-4h-2q-117 0 -224 47.5t-188 129t-130.5 193.5t-49.5 241zM532 1532l226 301h139l225 -301h-139l-156 211l-155 -211 h-140z" />
<glyph unicode="&#xd5;" horiz-adv-x="1654" d="M86 715v4q0 154 58.5 289t157.5 234t234.5 157.5t288.5 58.5h4q154 0 289 -58.5t234.5 -157.5t158 -234.5t58.5 -288.5v-4q0 -154 -58.5 -289t-158 -234.5t-234.5 -158t-289 -58.5h-4q-154 0 -289 58.5t-234 158t-157.5 234.5t-58.5 289zM233 709q0 -129 49.5 -241 t130.5 -193.5t187.5 -129t222.5 -47.5h4h2q117 0 224.5 47.5t188.5 129t130 193.5t49 241v16q0 127 -48 238.5t-129 193.5t-187.5 130t-225.5 48h-4h-4q-119 0 -225 -48t-187 -130t-129.5 -193.5t-48.5 -238.5v-16zM510 1532q4 55 20.5 104.5t42 85t57 56t66.5 20.5 t70 -23.5t67.5 -52t63.5 -52t59 -23.5q20 0 36 14t26 36.5t17 49.5t9 51h97q-4 -55 -20.5 -105.5t-42 -86t-59.5 -56t-71 -18.5q-35 0 -68.5 23.5t-65.5 52t-62.5 52t-57.5 23.5q-20 0 -35.5 -14t-25.5 -36.5t-17.5 -49.5t-9.5 -51h-96z" />
<glyph unicode="&#xd6;" horiz-adv-x="1654" d="M86 715v4q0 154 58.5 289t157.5 234t234.5 157.5t288.5 58.5h4q154 0 289 -58.5t234.5 -157.5t158 -234.5t58.5 -288.5v-4q0 -154 -58.5 -289t-158 -234.5t-234.5 -158t-289 -58.5h-4q-154 0 -289 58.5t-234 158t-157.5 234.5t-58.5 289zM233 709q0 -129 49.5 -241 t130.5 -193.5t188.5 -129t223.5 -47.5h2h4q117 0 223.5 47.5t187.5 129t130 193.5t49 241v16q0 127 -48 238.5t-129 193.5t-187.5 130t-225.5 48h-4h-4q-119 0 -225 -48t-187 -130t-129.5 -193.5t-48.5 -238.5v-16zM602 1561v153h154v-153h-154zM897 1561v153h154v-153h-154 z" />
<glyph unicode="&#xd7;" horiz-adv-x="1187" d="M172 201l315 317l-315 318l107 106l315 -317l315 317l107 -106l-316 -318l316 -317l-107 -107l-315 316l-315 -316z" />
<glyph unicode="&#xd8;" horiz-adv-x="1654" d="M86 715v4q0 154 58.5 289t157.5 234t234.5 157.5t288.5 58.5h4q61 0 120 -10t114 -29l29 72h114l-45 -111q90 -47 165 -114.5t129 -153.5t84 -185.5t30 -207.5v-4q0 -154 -58.5 -289t-158 -234.5t-234.5 -158t-289 -58.5h-4q-119 0 -229 35l-31 -80h-119l48 123 q-90 45 -166 114t-129.5 154t-83 185t-29.5 209zM233 709q0 -178 87.5 -317.5t224.5 -217.5l469 1129q-43 16 -89 24t-94 8h-8q-119 0 -225 -48t-187 -130t-129.5 -193.5t-48.5 -238.5v-16zM643 129q86 -31 180 -31h6q117 0 224.5 47.5t188.5 129t130 193.5t49 241v16 q0 86 -23.5 166t-64.5 148.5t-97 125t-124 95.5z" />
<glyph unicode="&#xd9;" horiz-adv-x="1347" d="M152 516v918h141v-924q0 -186 97 -293.5t284 -107.5q186 0 283.5 107.5t97.5 293.5v924h141v-918q0 -258 -137 -399.5t-385 -141.5t-385 141.5t-137 399.5zM500 1833h180l184 -301h-100z" />
<glyph unicode="&#xda;" horiz-adv-x="1347" d="M152 516q0 -258 137 -399.5t385 -141.5t385 141.5t137 399.5v918h-141v-924q0 -186 -97.5 -293.5t-283.5 -107.5t-283.5 107.5t-97.5 293.5v924h-141v-918zM483 1532l185 301h180l-264 -301h-101z" />
<glyph unicode="&#xdb;" horiz-adv-x="1347" d="M152 516q0 -258 137 -399.5t385 -141.5t385 141.5t137 399.5v918h-141v-924q0 -186 -97.5 -293.5t-283.5 -107.5t-283.5 107.5t-97.5 293.5v924h-141v-918zM381 1532l225 301h139l226 -301h-140l-155 211l-156 -211h-139z" />
<glyph unicode="&#xdc;" horiz-adv-x="1347" d="M152 516v918h141v-924q0 -186 97 -293.5t284 -107.5q186 0 283.5 107.5t97.5 293.5v924h141v-918q0 -258 -137 -399.5t-385 -141.5t-385 141.5t-137 399.5zM451 1561v153h153v-153h-153zM743 1561v153h154v-153h-154z" />
<glyph unicode="&#xdd;" horiz-adv-x="1202" d="M6 1434l524 -777v-657h142v657l524 777h-162l-434 -650l-432 650h-162zM471 1532l184 301h181l-265 -301h-100z" />
<glyph unicode="&#xde;" horiz-adv-x="980" d="M158 0v1434h141v-244h152q129 0 220 -30t148.5 -82t84 -120.5t26.5 -148.5q0 -92 -26.5 -166t-86 -125t-153 -78.5t-224.5 -27.5h-141v-412h-141zM299 535h158q74 0 134 12t104 44t68.5 85t24.5 133q0 135 -87 196.5t-252 61.5h-150v-532z" />
<glyph unicode="&#xdf;" horiz-adv-x="1120" d="M154 0v1012q0 123 30.5 208t88 138t137 76.5t178.5 23.5q74 0 142.5 -24.5t121.5 -71.5t85 -116.5t32 -160.5q0 -53 -8.5 -97t-32 -83t-63.5 -71.5t-101 -61.5v-4q80 -16 133 -54t85 -88.5t46 -105.5t14 -106q0 -90 -28.5 -166t-81.5 -131.5t-129 -86t-170 -30.5h-193 v125h150q131 0 215 73.5t84 219.5q0 76 -30 127t-80 82.5t-117.5 45t-141.5 13.5v125q43 0 95.5 12.5t97.5 41t74.5 75.5t29.5 117q0 49 -13 98t-42 88t-74 63.5t-108 24.5q-80 0 -135.5 -23.5t-88 -66.5t-47 -102.5t-14.5 -128.5v-1010h-141z" />
<glyph unicode="&#xe0;" horiz-adv-x="987" d="M72 283q0 74 26.5 138t76.5 111.5t121 74t157 26.5q66 0 139.5 -19.5t134.5 -54.5v137q0 66 -22.5 112t-59.5 74.5t-83 41t-91 12.5q-80 0 -151.5 -29.5t-116.5 -52.5l-49 96q25 14 59.5 31.5t79.5 32t97 25t110 10.5q74 0 138 -19.5t113.5 -58.5t77 -100.5t27.5 -143.5 v-727h-129v78q-16 -10 -46 -27.5t-70 -34t-87 -29t-100 -12.5q-72 0 -135.5 20.5t-111.5 60.5t-76.5 96.5t-28.5 130.5zM207 293q0 -47 18.5 -85t50 -64.5t73.5 -41t89 -14.5q57 0 108.5 15.5t92.5 35.5q47 23 88 54v247q-53 35 -120.5 57.5t-139.5 22.5q-55 0 -102.5 -16.5 t-83 -46t-55 -71.5t-19.5 -93zM260 1448h180l185 -301h-101z" />
<glyph unicode="&#xe1;" horiz-adv-x="987" d="M72 283q0 -74 28.5 -130.5t76.5 -96.5t111.5 -60.5t135.5 -20.5q53 0 100 12.5t87 29t70 34t46 27.5v-78h129v727q0 82 -27.5 143.5t-77 100.5t-114 58.5t-137.5 19.5q-57 0 -109.5 -10.5t-97.5 -25t-80 -31.5t-59 -32l49 -96q45 23 116.5 52.5t151.5 29.5q45 0 91 -12.5 t83 -41t59.5 -74.5t22.5 -112v-137q-61 35 -135 54.5t-139 19.5q-86 0 -157 -26.5t-121 -74t-76.5 -112t-26.5 -137.5zM207 293q0 51 19.5 93t55 71.5t83 46t102.5 16.5q72 0 139.5 -22.5t120.5 -57.5v-247q-41 -31 -88 -54q-41 -20 -92 -35.5t-109 -15.5q-47 0 -89 14.5 t-73.5 41t-50 64.5t-18.5 85zM403 1147l185 301h180l-264 -301h-101z" />
<glyph unicode="&#xe2;" horiz-adv-x="987" d="M72 283q0 -74 28.5 -130.5t76.5 -96.5t111.5 -60.5t135.5 -20.5q53 0 100 12.5t87 29t70 34t46 27.5v-78h129v727q0 82 -27.5 143.5t-77 100.5t-114 58.5t-137.5 19.5q-57 0 -109.5 -10.5t-97.5 -25t-80 -31.5t-59 -32l49 -96q45 23 116.5 52.5t151.5 29.5q45 0 91 -12.5 t83 -41t59.5 -74.5t22.5 -112v-137q-61 35 -135 54.5t-139 19.5q-86 0 -157 -26.5t-121 -74t-76.5 -112t-26.5 -137.5zM203 1147l225 301h139l226 -301h-140l-155 211l-156 -211h-139zM207 293q0 51 19.5 93t55 71.5t83 46t102.5 16.5q72 0 139.5 -22.5t120.5 -57.5v-247 q-41 -31 -88 -54q-41 -20 -92 -35.5t-109 -15.5q-47 0 -89 14.5t-73.5 41t-50 64.5t-18.5 85z" />
<glyph unicode="&#xe3;" horiz-adv-x="987" d="M72 283q0 74 26.5 138t76.5 111.5t121 74t157 26.5q66 0 139.5 -19.5t134.5 -54.5v137q0 66 -22.5 112t-59.5 74.5t-83 41t-91 12.5q-80 0 -151.5 -29.5t-116.5 -52.5l-49 96q25 14 59.5 31.5t79.5 32t97 25t110 10.5q74 0 138 -19.5t113.5 -58.5t77 -100.5t27.5 -143.5 v-727h-129v78q-16 -10 -46 -27.5t-70 -34t-87 -29t-100 -12.5q-72 0 -135.5 20.5t-111.5 60.5t-76.5 96.5t-28.5 130.5zM174 1147q4 55 20.5 104t42 85t57 56.5t66.5 20.5t70 -23.5t67.5 -52t63.5 -52t60 -23.5q20 0 35.5 14t25.5 36.5t17.5 49.5t9.5 51h96 q-4 -55 -20.5 -105.5t-42 -86t-59.5 -56t-71 -18.5q-35 0 -68.5 23.5t-65.5 52t-62.5 52t-57.5 23.5q-20 0 -35.5 -14t-25.5 -36.5t-17.5 -49.5t-9.5 -51h-96zM207 293q0 -47 18.5 -85t50 -64.5t73.5 -41t89 -14.5q57 0 108.5 15.5t92.5 35.5q47 23 88 54v247 q-53 35 -120.5 57.5t-139.5 22.5q-55 0 -102.5 -16.5t-83 -46t-55 -71.5t-19.5 -93z" />
<glyph unicode="&#xe4;" horiz-adv-x="987" d="M72 283q0 74 26.5 138t76.5 111.5t121 74t157 26.5q66 0 139.5 -19.5t134.5 -54.5v137q0 66 -22.5 112t-59.5 74.5t-83 41t-91 12.5q-80 0 -151.5 -29.5t-116.5 -52.5l-49 96q25 14 59.5 31.5t79.5 32t97 25t110 10.5q74 0 138 -19.5t113.5 -58.5t77 -100.5t27.5 -143.5 v-727h-129v78q-16 -10 -46 -27.5t-70 -34t-87 -29t-100 -12.5q-72 0 -135.5 20.5t-111.5 60.5t-76.5 96.5t-28.5 130.5zM207 293q0 -47 18.5 -85t50 -64.5t73.5 -41t89 -14.5q57 0 108.5 15.5t92.5 35.5q47 23 88 54v247q-53 35 -120.5 57.5t-139.5 22.5q-55 0 -102.5 -16.5 t-83 -46t-55 -71.5t-19.5 -93zM276 1137v153h154v-153h-154zM569 1137v153h154v-153h-154z" />
<glyph unicode="&#xe5;" horiz-adv-x="987" d="M72 283q0 74 26.5 138t76.5 111.5t121 74t157 26.5q66 0 139.5 -19.5t134.5 -54.5v137q0 66 -22.5 112t-59.5 74.5t-83 41t-91 12.5q-80 0 -151.5 -29.5t-116.5 -52.5l-49 96q25 14 59.5 31.5t79.5 32t97 25t110 10.5q74 0 138 -19.5t113.5 -58.5t77 -100.5t27.5 -143.5 v-727h-129v78q-16 -10 -46 -27.5t-70 -34t-87 -29t-100 -12.5q-72 0 -135.5 20.5t-111.5 60.5t-76.5 96.5t-28.5 130.5zM207 293q0 -47 18.5 -85t50 -64.5t73.5 -41t89 -14.5q57 0 108.5 15.5t92.5 35.5q47 23 88 54v247q-53 35 -120.5 57.5t-139.5 22.5q-55 0 -102.5 -16.5 t-83 -46t-55 -71.5t-19.5 -93zM313 1319q0 78 54.5 132t132.5 54q37 0 70.5 -15t59 -41t41 -59.5t15.5 -70.5t-15.5 -71t-41 -59.5t-59 -40.5t-70.5 -15t-71 14t-59.5 39.5t-41 59.5t-15.5 73zM377 1319q0 -49 37 -86t86 -37q47 0 85 38t38 85q0 49 -37 86t-86 37t-86 -37 t-37 -86z" />
<glyph unicode="&#xe6;" horiz-adv-x="1759" d="M72 283q0 74 26.5 138t76.5 111.5t121 74t157 26.5q66 0 139.5 -19.5t134.5 -54.5v137q0 66 -22.5 112t-59.5 74.5t-83 41t-91 12.5q-80 0 -151.5 -29.5t-116.5 -52.5l-49 96q25 14 59.5 31.5t79.5 32t97 25t110 10.5q113 0 203 -46.5t128 -142.5q66 86 164.5 137.5 t227.5 51.5q106 0 193 -35t148.5 -105.5t95.5 -179t34 -256.5h-836q0 -68 25.5 -135.5t78 -121.5t129 -88t179.5 -34q86 0 169 31t156 96l80 -86q-92 -78 -189 -119t-226 -41q-131 0 -236.5 48.5t-177.5 134.5q-100 -74 -211 -128.5t-211 -54.5q-72 0 -135.5 20.5 t-111.5 60.5t-76.5 96.5t-28.5 130.5zM207 293q0 -47 18.5 -85t50 -64.5t73.5 -41t89 -14.5q59 0 114.5 18.5t102.5 43t83 50t55 38.5q-47 84 -64 194l-2 8q-53 35 -120.5 57.5t-139.5 22.5q-55 0 -102.5 -16.5t-83 -46t-55 -71.5t-19.5 -93zM858 596h684q0 76 -24.5 138.5 t-68.5 107.5t-103.5 69.5t-126.5 24.5q-76 0 -138.5 -27.5t-109.5 -75t-76 -108.5t-37 -129z" />
<glyph unicode="&#xe7;" horiz-adv-x="1085" d="M76 514q0 113 42 211t115.5 170t173 113t211.5 41q100 0 203 -40t195 -139l-88 -86q-63 66 -137 106t-177 40q-90 0 -164.5 -34t-128 -91t-83 -132t-29.5 -157t27.5 -157.5t80 -134t127 -94.5t170.5 -36q92 0 176 38t162 136l92 -82q-94 -115 -201.5 -163t-224.5 -48 q-14 0 -26 1t-27 4l-49 -89q35 8 73 5.5t69.5 -19t52 -46.5t20.5 -73q0 -49 -20.5 -83.5t-53 -56t-74.5 -32t-85 -10.5q-86 0 -164 41l31 59q33 -14 61.5 -22t69.5 -8q20 0 42.5 5t42 16t33 30.5t13.5 48.5q0 45 -34 65.5t-73 20.5q-25 0 -44 -8t-30 -12l-40 36l86 142 q-92 20 -168 68t-131.5 118t-86 156t-30.5 182z" />
<glyph unicode="&#xe8;" horiz-adv-x="1112" d="M76 506q0 111 33.5 210t98 173t158 117t209.5 43q106 0 193.5 -35t149 -105.5t95.5 -179t34 -256.5h-836q0 -68 25.5 -135.5t78 -121.5t129 -88t179.5 -34q86 0 168.5 31t156.5 96l80 -86q-92 -78 -189.5 -119t-226.5 -41q-119 0 -218 41t-169.5 113t-109.5 169t-39 208z M211 596h684q0 76 -24.5 138.5t-68.5 107.5t-103.5 69.5t-127.5 24.5q-76 0 -138 -27.5t-109.5 -75t-76 -108.5t-36.5 -129zM315 1448h181l184 -301h-100z" />
<glyph unicode="&#xe9;" horiz-adv-x="1112" d="M76 506q0 -111 39 -208t109.5 -169t170 -113t217.5 -41q129 0 226.5 41t189.5 119l-80 86q-74 -66 -156.5 -96.5t-168.5 -30.5q-102 0 -179 34t-129.5 88t-78 122t-25.5 135h836q0 147 -34 256t-95.5 179.5t-148.5 105.5t-194 35q-117 0 -210 -43t-157.5 -117t-98 -173.5 t-33.5 -209.5zM211 596q8 68 36.5 129t76 108.5t110 75t137.5 27.5q68 0 127.5 -24.5t103.5 -69.5t68.5 -107.5t24.5 -138.5h-684zM479 1147l185 301h180l-264 -301h-101z" />
<glyph unicode="&#xea;" horiz-adv-x="1112" d="M76 506q0 -111 39 -208t109.5 -169t170 -113t217.5 -41q129 0 226.5 41t189.5 119l-80 86q-74 -66 -156.5 -96.5t-168.5 -30.5q-102 0 -179 34t-129.5 88t-78 122t-25.5 135h836q0 147 -34 256t-95.5 179.5t-148.5 105.5t-194 35q-117 0 -210 -43t-157.5 -117t-98 -173.5 t-33.5 -209.5zM211 596q8 68 36.5 129t76 108.5t110 75t137.5 27.5q68 0 127.5 -24.5t103.5 -69.5t68.5 -107.5t24.5 -138.5h-684zM281 1147l225 301h139l225 -301h-139l-156 211l-155 -211h-139z" />
<glyph unicode="&#xeb;" horiz-adv-x="1112" d="M76 506q0 111 33.5 210t98 173t158 117t209.5 43q106 0 193.5 -35t149 -105.5t95.5 -179t34 -256.5h-836q0 -68 25.5 -135.5t78 -121.5t129 -88t179.5 -34q86 0 168.5 31t156.5 96l80 -86q-92 -78 -189.5 -119t-226.5 -41q-119 0 -218 41t-169.5 113t-109.5 169t-39 208z M211 596h684q0 76 -24.5 138.5t-68.5 107.5t-103.5 69.5t-127.5 24.5q-76 0 -138 -27.5t-109.5 -75t-76 -108.5t-36.5 -129zM354 1163v154h154v-154h-154zM647 1163v154h154v-154h-154z" />
<glyph unicode="&#xec;" horiz-adv-x="407" d="M-18 1448h180l184 -301h-100zM139 0v1024h129v-1024h-129z" />
<glyph unicode="&#xed;" horiz-adv-x="407" d="M61 1147l185 301h180l-264 -301h-101zM139 0h129v1024h-129v-1024z" />
<glyph unicode="&#xee;" horiz-adv-x="407" d="M-92 1147l225 301h139l226 -301h-140l-155 211l-156 -211h-139zM139 0h129v1024h-129v-1024z" />
<glyph unicode="&#xef;" horiz-adv-x="407" d="M-18 1163v154h153v-154h-153zM139 0v1024h129v-1024h-129zM272 1163v154h154v-154h-154z" />
<glyph unicode="&#xf0;" horiz-adv-x="1224" d="M76 510v6q2 113 44 210t114.5 169t170 113t207.5 41h2q53 0 132 -17.5t165 -83.5q-20 43 -54 91t-75 94.5t-89 87.5t-95 69q-78 -35 -169 -75.5t-173 -77.5l-23 82l281 129q-92 63 -152.5 87.5t-107.5 41.5l102 79q147 -55 297 -147l275 123l22 -82l-217 -98 q92 -76 169 -166t132.5 -194.5t85 -223.5t29.5 -254v-8q-2 -111 -44 -208t-114.5 -169t-170 -113t-208.5 -41q-113 0 -210 41t-169.5 114t-114.5 170t-42 210zM209 514q0 -84 28.5 -159.5t81 -133t126 -92.5t165.5 -35h2q90 0 164 34t126 90t82 131t32 157v8q0 82 -30 156.5 t-82 132t-125.5 92.5t-164.5 35h-4q-90 0 -163.5 -35t-127 -92.5t-82 -132t-28.5 -156.5z" />
<glyph unicode="&#xf1;" horiz-adv-x="1067" d="M139 0v1024h129v-59q8 4 34 18t63.5 28.5t85 26t98.5 11.5q66 0 134.5 -15.5t123.5 -53.5t91 -101.5t36 -159.5v-719h-129v692q0 70 -26.5 117t-68.5 75.5t-93.5 40t-100.5 11.5q-57 0 -124.5 -20.5t-123.5 -53.5v-862h-129zM215 1147q4 55 20.5 104t42 85t57 56.5 t66.5 20.5t70 -23.5t67.5 -52t63.5 -52t60 -23.5q20 0 35.5 14t25.5 36.5t17.5 49.5t9.5 51h96q-4 -55 -20.5 -105.5t-42 -86t-59.5 -56t-71 -18.5q-35 0 -68.5 23.5t-65.5 52t-62.5 52t-57.5 23.5q-20 0 -35.5 -14t-25.5 -36.5t-17.5 -49.5t-9.5 -51h-96z" />
<glyph unicode="&#xf2;" horiz-adv-x="1224" d="M76 506v8q0 111 42 208t114.5 170t170 115t207.5 42h2q111 0 208.5 -41t170 -113t114.5 -169t44 -210v-6q0 -113 -42 -210t-114.5 -170t-170 -114t-210.5 -41q-111 0 -208 41t-169.5 113t-114.5 169t-44 208zM209 506q2 -82 31.5 -157t82 -131t126 -90t163.5 -34h2 q92 0 166 35t126 92.5t81 133t29 159.5q0 82 -29 156.5t-82 132t-127 92.5t-164 35h-4q-90 0 -163.5 -35t-126 -92.5t-82 -132t-29.5 -156.5v-8zM346 1448h180l185 -301h-101z" />
<glyph unicode="&#xf3;" horiz-adv-x="1224" d="M76 510q0 -113 42 -210t114.5 -170t170 -114t209.5 -41q111 0 208.5 41t170 113t114.5 169t44 208v8q0 111 -42 208t-114.5 170t-170 115t-208.5 42h-2q-111 0 -208 -41t-169.5 -113t-114.5 -169t-44 -210v-6zM209 514q0 82 28.5 156.5t82 132t127 92.5t163.5 35h4 q90 0 164 -35t126 -92.5t82 -132t30 -156.5v-8q-2 -82 -32 -157t-82 -131t-126 -90t-164 -34h-2q-92 0 -165.5 35t-126 92.5t-81 133t-28.5 159.5zM514 1147l184 301h181l-265 -301h-100z" />
<glyph unicode="&#xf4;" horiz-adv-x="1224" d="M76 510q0 -113 42 -210t114.5 -170t170 -114t209.5 -41q111 0 208.5 41t170 113t114.5 169t44 208v8q0 111 -42 208t-114.5 170t-170 115t-208.5 42h-2q-111 0 -208 -41t-169.5 -113t-114.5 -169t-44 -210v-6zM209 514q0 82 28.5 156.5t82 132t127 92.5t163.5 35h4 q90 0 164 -35t126 -92.5t82 -132t30 -156.5v-8q-2 -82 -32 -157t-82 -131t-126 -90t-164 -34h-2q-92 0 -165.5 35t-126 92.5t-81 133t-28.5 159.5zM319 1147l226 301h139l225 -301h-139l-156 211l-155 -211h-140z" />
<glyph unicode="&#xf5;" horiz-adv-x="1224" d="M76 510v6q2 113 44 210t114.5 169t170 113t207.5 41h2q111 0 208.5 -42t170 -115t114.5 -170t42 -208v-8q-2 -111 -44 -208t-114.5 -169t-170 -113t-208.5 -41q-113 0 -210 41t-169.5 114t-114.5 170t-42 210zM209 514q0 -84 28.5 -159.5t81 -133t126 -92.5t165.5 -35h2 q90 0 164 34t126 90t82 131t32 157v8q0 82 -30 156.5t-82 132t-125.5 92.5t-164.5 35h-4q-90 0 -163.5 -35t-127 -92.5t-82 -132t-28.5 -156.5zM299 1147q4 55 20.5 104t42 85t57 56.5t66.5 20.5t70 -23.5t67.5 -52t63.5 -52t59 -23.5q20 0 36 14t26 36.5t17 49.5t10 51h96 q-4 -55 -20.5 -105.5t-42 -86t-59.5 -56t-71 -18.5q-35 0 -68.5 23.5t-65.5 52t-62.5 52t-57.5 23.5q-20 0 -35.5 -14t-25.5 -36.5t-17.5 -49.5t-9.5 -51h-96z" />
<glyph unicode="&#xf6;" horiz-adv-x="1224" d="M76 510v6q2 113 44 210t114.5 169t170 113t207.5 41h2q111 0 208.5 -42t170 -115t114.5 -170t42 -208v-8q-2 -111 -44 -208t-114.5 -169t-170 -113t-208.5 -41q-113 0 -210 41t-169.5 114t-114.5 170t-42 210zM209 514q0 -84 28.5 -159.5t81 -133t126 -92.5t165.5 -35h2 q90 0 164 34t126 90t82 131t32 157v8q0 82 -30 156.5t-82 132t-125.5 92.5t-164.5 35h-4q-90 0 -163.5 -35t-127 -92.5t-82 -132t-28.5 -156.5zM393 1163v154h154v-154h-154zM684 1163v154h154v-154h-154z" />
<glyph unicode="&#xf7;" horiz-adv-x="1261" d="M102 449v126h1057v-126h-1057zM506 123q0 51 37 88t86 37q47 0 85 -38t38 -87q0 -47 -37 -85t-84 -38q-51 0 -88 37t-37 86zM506 899q0 51 37 88t86 37q47 0 85 -38t38 -87q0 -47 -37 -85t-84 -38q-51 0 -88 37t-37 86z" />
<glyph unicode="&#xf8;" horiz-adv-x="1224" d="M76 510v6q2 113 44 210t114.5 169t170 113t207.5 41h2q37 0 72 -5.5t70 -15.5l30 72h115l-45 -111q63 -33 117.5 -82t92.5 -110.5t60.5 -133t22.5 -149.5v-8q-2 -111 -44 -208t-114.5 -169t-170 -113t-208.5 -41q-45 0 -87 7.5t-83 19.5l-30 -78h-115l49 119 q-123 70 -196.5 191.5t-73.5 275.5zM209 514q0 -111 48 -206t136 -152l318 762q-23 4 -47.5 8t-49.5 4h-4q-90 0 -163.5 -35t-127 -92.5t-82 -132t-28.5 -156.5zM489 111q59 -16 121 -17h2q90 0 164 34t126 90t82 131t32 157v8q-2 115 -56.5 212t-150.5 153z" />
<glyph unicode="&#xf9;" horiz-adv-x="1067" d="M133 305v719h129v-692q0 -72 26.5 -118t68.5 -74.5t93.5 -40t100.5 -11.5q57 0 124.5 20.5t123.5 53.5v862h129v-1024h-129v59q-8 -4 -34 -18t-63.5 -28.5t-85 -26t-98.5 -11.5q-66 0 -134.5 15.5t-123.5 53.5t-91 101.5t-36 159.5zM311 1448h181l184 -301h-101z" />
<glyph unicode="&#xfa;" horiz-adv-x="1067" d="M133 305q0 -96 36 -159.5t91 -101.5t124 -53.5t134 -15.5q51 0 98.5 11.5t85 26t63.5 28.5t34 18v-59h129v1024h-129v-862q-55 -33 -123 -53.5t-125 -20.5q-49 0 -100.5 11.5t-93.5 40t-68.5 74.5t-26.5 118v692h-129v-719zM387 1147l184 301h181l-265 -301h-100z" />
<glyph unicode="&#xfb;" horiz-adv-x="1067" d="M133 305q0 -96 36 -159.5t91 -101.5t124 -53.5t134 -15.5q51 0 98.5 11.5t85 26t63.5 28.5t34 18v-59h129v1024h-129v-862q-55 -33 -123 -53.5t-125 -20.5q-49 0 -100.5 11.5t-93.5 40t-68.5 74.5t-26.5 118v692h-129v-719zM236 1147l225 301h139l225 -301h-139l-156 211 l-155 -211h-139z" />
<glyph unicode="&#xfc;" horiz-adv-x="1067" d="M133 305v719h129v-692q0 -72 26.5 -118t68.5 -74.5t93.5 -40t100.5 -11.5q57 0 124.5 20.5t123.5 53.5v862h129v-1024h-129v59q-8 -4 -34 -18t-63.5 -28.5t-85 -26t-98.5 -11.5q-66 0 -134.5 15.5t-123.5 53.5t-91 101.5t-36 159.5zM307 1163v154h154v-154h-154z M600 1163v154h154v-154h-154z" />
<glyph unicode="&#xfd;" horiz-adv-x="1052" d="M123 305q0 -96 36 -159.5t91 -101.5t123.5 -53.5t134.5 -15.5q51 0 98 11.5t85 26t63.5 28.5t33.5 18v-122q0 -37 -5 -82t-30.5 -83t-77.5 -63.5t-145 -25.5q-47 0 -83.5 4t-72.5 13t-73 22.5t-80 29.5l-33 -104q45 -18 134.5 -48t207.5 -30q43 0 110 9t128 43 t105.5 97.5t44.5 174.5v1130h-130v-862q-55 -33 -122.5 -53.5t-124.5 -20.5q-49 0 -100.5 11.5t-93.5 40t-68.5 74.5t-26.5 118v692h-129v-719zM375 1147l184 301h180l-264 -301h-100z" />
<glyph unicode="&#xfe;" horiz-adv-x="1101" d="M139 -461v1997h129v-590q47 31 132 67t190 36q106 0 187 -40t135.5 -110t82 -167t27.5 -210q0 -115 -25.5 -215t-77 -174t-131 -116t-186.5 -42q-92 0 -169 24t-165 77v-537h-129zM268 197q23 -16 54.5 -35t72.5 -35t89 -27.5t102 -11.5q147 0 224 118t77 318 q0 205 -84 308.5t-236 103.5q-37 0 -79 -9t-82.5 -24.5t-76.5 -35t-61 -42.5v-628z" />
<glyph unicode="&#xff;" horiz-adv-x="1052" d="M123 305v719h129v-692q0 -72 26.5 -118t68.5 -74.5t93.5 -40t100.5 -11.5q57 0 124.5 20.5t122.5 53.5v862h130v-1130q0 -111 -44.5 -174.5t-105.5 -97.5t-128 -43t-110 -9q-119 0 -208 29.5t-134 48.5l33 104q43 -16 80 -29.5t73 -22.5t72.5 -13t83.5 -4 q92 0 144.5 25.5t78 63.5t30.5 83t5 82v122q-8 -4 -33.5 -18t-63.5 -28.5t-85 -26t-98 -11.5q-66 0 -134.5 15.5t-123.5 53.5t-91 101.5t-36 159.5zM297 1163v154h154v-154h-154zM590 1163v154h153v-154h-153z" />
<glyph unicode="&#x152;" horiz-adv-x="2367" d="M86 715v4q0 154 58.5 289t157.5 234t234.5 157.5t288.5 58.5h4q180 0 331 -76.5t253 -207.5v260h854l-10 -123h-703v-510h598v-123h-598v-555h723l11 -123h-875v260q-102 -131 -252.5 -208t-331.5 -77h-4q-154 0 -289 58.5t-234 158t-157.5 234.5t-58.5 289zM233 709 q0 -129 49.5 -241t130.5 -193.5t187.5 -129t222.5 -47.5h6q117 0 222.5 47.5t185.5 129t128 193.5t48 241v16q0 127 -47 238.5t-126 193.5t-184.5 130t-224.5 48h-8q-119 0 -225 -48t-187 -130t-129.5 -193.5t-48.5 -238.5v-16z" />
<glyph unicode="&#x153;" horiz-adv-x="2050" d="M76 510v6q2 113 44 210t114.5 169t170 113t207.5 41h2q150 -2 272 -75t191 -194q59 121 169 195t267 74q106 0 193.5 -35t149 -105.5t95.5 -179t34 -256.5h-836q0 -68 25.5 -135.5t78 -121.5t129 -88t179.5 -34q86 0 168.5 31t156.5 96l80 -86q-92 -78 -189.5 -119 t-226.5 -41q-162 0 -283.5 73t-187.5 196q-70 -123 -192.5 -196t-274.5 -73q-113 0 -210 41t-169.5 114t-114.5 170t-42 210zM209 514q0 -84 28.5 -159.5t81 -133t126 -92.5t165.5 -35h2q90 0 164 34t126 90t82 131t32 157v8v14q-4 80 -35 153t-83 128t-124 88t-160 33h-4 q-90 0 -163.5 -35t-127 -92.5t-82 -132t-28.5 -156.5zM1149 596h684q0 76 -24.5 138.5t-68.5 107.5t-103.5 69.5t-127.5 24.5q-76 0 -138 -27.5t-109.5 -75t-76 -108.5t-36.5 -129z" />
<glyph unicode="&#x178;" horiz-adv-x="1202" d="M6 1434h162l432 -650l434 650h162l-524 -777v-657h-142v657zM377 1561v153h153v-153h-153zM672 1561v153h153v-153h-153z" />
<glyph unicode="&#x2c6;" horiz-adv-x="802" d="M106 1532l226 301h139l225 -301h-139l-156 211l-155 -211h-140z" />
<glyph unicode="&#x2dc;" horiz-adv-x="630" d="M0 1167q4 55 20.5 104.5t42 85.5t57 56.5t66.5 20.5t70 -24t67.5 -52.5t63.5 -52t59 -23.5q20 0 36 14.5t26 37t17 49t10 51.5h96q-4 -55 -20.5 -105.5t-42 -86.5t-59.5 -56.5t-71 -18.5q-35 0 -68.5 23.5t-65.5 52.5t-62.5 52.5t-57.5 23.5q-20 0 -35.5 -14.5t-25.5 -37 t-17.5 -49t-9.5 -51.5h-96z" />
<glyph unicode="&#x2000;" horiz-adv-x="967" />
<glyph unicode="&#x2001;" horiz-adv-x="1935" />
<glyph unicode="&#x2002;" horiz-adv-x="967" />
<glyph unicode="&#x2003;" horiz-adv-x="1935" />
<glyph unicode="&#x2004;" horiz-adv-x="645" />
<glyph unicode="&#x2005;" horiz-adv-x="483" />
<glyph unicode="&#x2006;" horiz-adv-x="322" />
<glyph unicode="&#x2007;" horiz-adv-x="322" />
<glyph unicode="&#x2008;" horiz-adv-x="241" />
<glyph unicode="&#x2009;" horiz-adv-x="387" />
<glyph unicode="&#x200a;" horiz-adv-x="107" />
<glyph unicode="&#x2010;" horiz-adv-x="622" d="M61 457v110h500v-110h-500z" />
<glyph unicode="&#x2011;" horiz-adv-x="622" d="M61 457v110h500v-110h-500z" />
<glyph unicode="&#x2012;" horiz-adv-x="622" d="M61 457v110h500v-110h-500z" />
<glyph unicode="&#x2013;" horiz-adv-x="1124" d="M61 457v110h1002v-110h-1002z" />
<glyph unicode="&#x2014;" horiz-adv-x="2125" d="M61 457v110h2003v-110h-2003z" />
<glyph unicode="&#x2018;" horiz-adv-x="370" d="M72 1147l114 287h113l-86 -287h-141z" />
<glyph unicode="&#x2019;" horiz-adv-x="370" d="M72 1147l86 287h141l-115 -287h-112z" />
<glyph unicode="&#x201a;" horiz-adv-x="370" d="M72 -125l86 287h141l-115 -287h-112z" />
<glyph unicode="&#x201c;" horiz-adv-x="624" d="M72 1147l114 287h113l-86 -287h-141zM326 1147l114 287h113l-86 -287h-141z" />
<glyph unicode="&#x201d;" horiz-adv-x="624" d="M72 1147l86 287h141l-115 -287h-112zM326 1147l86 287h141l-115 -287h-112z" />
<glyph unicode="&#x201e;" horiz-adv-x="624" d="M72 -125l86 287h141l-115 -287h-112zM326 -125l86 287h141l-115 -287h-112z" />
<glyph unicode="&#x2022;" horiz-adv-x="903" d="M133 719q0 66 24.5 124t67.5 101t101.5 67.5t124.5 24.5t124 -24.5t101 -67.5t68.5 -101.5t25.5 -123.5q0 -68 -25.5 -126t-68.5 -101t-101.5 -68t-123.5 -25q-66 0 -124.5 25t-101.5 68t-67.5 101t-24.5 126z" />
<glyph unicode="&#x2026;" horiz-adv-x="1206" d="M139 0v141h142v-141h-142zM532 0v141h142v-141h-142zM926 0v141h141v-141h-141z" />
<glyph unicode="&#x202f;" horiz-adv-x="387" />
<glyph unicode="&#x2039;" horiz-adv-x="559" d="M72 512l286 399h119l-260 -399l260 -399h-119z" />
<glyph unicode="&#x203a;" horiz-adv-x="559" d="M82 113l260 399l-260 399h119l286 -399l-286 -399h-119z" />
<glyph unicode="&#x205f;" horiz-adv-x="483" />
<glyph unicode="&#x20ac;" horiz-adv-x="1437" d="M23 485v123h69q-6 51 -6 109q0 29 2 56.5t6 55.5h-71v123h100q37 111 105.5 203t160.5 159.5t204 105.5t234 38q86 0 158 -17.5t132.5 -48t111.5 -70.5t94 -83l-94 -90q-72 78 -178.5 132t-223.5 54q-109 0 -197.5 -29.5t-159.5 -80.5t-121 -122t-81 -151h676v-123h-708 q-4 -29 -6.5 -56.5t-2.5 -55.5q0 -29 2 -55.5t7 -53.5h708v-123h-676q31 -82 83 -152.5t123 -122.5t160 -82t193 -30q135 0 247 64.5t198 175.5l102 -86q-227 -276 -547 -277q-123 0 -235.5 38t-204.5 105.5t-159.5 162t-104.5 204.5h-100z" />
<glyph unicode="&#x2122;" horiz-adv-x="1972" d="M125 1327l8 107h676l-8 -107h-277v-729h-118v729h-281zM938 598v836h164l289 -703l288 703h168v-836h-118v637l-263 -637h-149l-260 637v-637h-119z" />
<glyph unicode="&#x25fc;" horiz-adv-x="1024" d="M0 0v1024h1024v-1024h-1024z" />
</font>
</defs>
</svg>
