<?xml version="1.0" standalone="no"?>
<!DOCTYPE svg PUBLIC "-//W3C//DTD SVG 1.1//EN" "http://www.w3.org/Graphics/SVG/1.1/DTD/svg11.dtd" >
<svg xmlns="http://www.w3.org/2000/svg">
<metadata></metadata>
<defs>
<font id="nordeusmedium" horiz-adv-x="1138" >
<font-face units-per-em="2048" ascent="1536" descent="-512" />
<missing-glyph horiz-adv-x="573" />
<glyph horiz-adv-x="0" />
<glyph horiz-adv-x="682" />
<glyph unicode=" "  horiz-adv-x="573" />
<glyph unicode="&#x09;" horiz-adv-x="573" />
<glyph unicode="&#xa0;" horiz-adv-x="573" />
<glyph unicode="!" horiz-adv-x="548" d="M147 1434h254l-24 -1057h-205zM152 0v246h245v-246h-245z" />
<glyph unicode="&#x22;" horiz-adv-x="645" d="M51 1434h230l-48 -426h-139zM365 1434h229l-47 -426h-139z" />
<glyph unicode="#" horiz-adv-x="1290" d="M63 487v154h299l29 186h-282v154h305l69 453h166l-67 -453h198l70 453h166l-68 -453h279v-154h-303l-27 -186h285v-154h-308l-73 -487h-168l74 487h-199l-74 -487h-168l74 487h-277zM530 641h199l29 186h-201z" />
<glyph unicode="$" horiz-adv-x="1103" d="M66 57l65 213q45 -20 102 -34q49 -14 119 -24.5t160 -14.5v448q-70 29 -139.5 63.5t-126 83t-91 114t-34.5 157.5q0 88 31.5 157.5t86 117.5t125 75t148.5 31v160h143v-162q74 -2 137.5 -4t110.5 -6q53 -4 101 -7l-50 -211q-35 2 -82 5q-41 2 -96 2t-121 2v-385 q72 -33 144.5 -70t132 -87t97.5 -117.5t38 -162.5q0 -86 -29.5 -158.5t-84 -126t-130 -88t-168.5 -46.5v-205h-143v198q-123 2 -207 14.5t-137 28.5q-63 18 -102 39zM379 1063q0 -51 37 -88t96 -70v309q-61 -14 -97 -51t-36 -100zM655 209q78 23 115 74.5t37 117.5 q0 61 -43 103.5t-109 77.5v-373z" />
<glyph unicode="%" horiz-adv-x="1757" d="M51 1073q0 195 97.5 290t252.5 95q156 0 253.5 -95t97.5 -290t-97.5 -290t-253.5 -95t-253 95.5t-97 289.5zM246 1073q0 -70 14 -112.5t36.5 -66.5t50.5 -32t54 -8q27 0 54.5 8t50 32t37 66.5t14.5 112.5t-14.5 113t-37 66.5t-50 31.5t-54.5 8t-54.5 -8t-50 -31.5 t-36.5 -66.5t-14 -113zM344 0l852 1434h215l-850 -1434h-217zM1006 360q0 195 97 290t253 95t253 -95t97 -290t-97.5 -290t-252.5 -95q-156 0 -253 95.5t-97 289.5zM1200 360q0 -70 14.5 -112.5t37 -66t50 -32t54.5 -8.5t54.5 8.5t50 32t36.5 66t14 112.5t-14 113 t-36.5 66.5t-50.5 32t-54 8.5q-27 0 -54.5 -8.5t-50 -32t-37 -66.5t-14.5 -113z" />
<glyph unicode="&#x26;" horiz-adv-x="1687" d="M154 391q0 137 76.5 236.5t197.5 173.5q-72 78 -116 144.5t-52 158.5q-14 164 92.5 259t298.5 95q80 0 150.5 -21.5t124 -62.5t84 -104.5t30.5 -145.5q0 -55 -11 -99t-38.5 -84t-73 -78t-110.5 -81l256 -235l174 272h291l-283 -440l412 -379h-367l-180 168 q-47 -55 -95 -92t-102.5 -59.5t-118 -32t-141.5 -9.5q-100 0 -190 26t-158.5 78t-109.5 130t-41 182zM399 393q0 -45 21.5 -82t57.5 -63.5t85 -39.5t105 -11q106 4 162.5 44t95.5 97l-332 307q-59 -35 -97 -67.5t-59.5 -64.5t-30 -62.5t-8.5 -57.5zM506 1116 q0 -27 15.5 -53.5t37 -50t44 -43t36.5 -31.5q29 18 57.5 36.5t50 40t35 47t13.5 56.5q0 57 -40 88t-106 31q-82 0 -112.5 -38t-30.5 -83z" />
<glyph unicode="'" horiz-adv-x="315" d="M43 1434h229l-47 -426h-139z" />
<glyph unicode="(" horiz-adv-x="579" d="M102 586v4v24q2 119 18.5 239t52.5 236.5t92.5 228.5t135.5 214l164 -111q-70 -96 -118 -191t-77.5 -193.5t-43 -203t-15.5 -219.5q0 -121 12.5 -229.5t42 -209.5t79 -198.5t120.5 -197.5l-164 -111q-160 205 -228.5 442.5t-70.5 475.5z" />
<glyph unicode=")" horiz-adv-x="579" d="M14 -221q72 100 121 197.5t79 198.5t42 210t12 229q-2 115 -15 219.5t-43 203t-78 193.5t-118 191l164 111q80 -102 136.5 -214t92 -228.5t52 -236.5t18.5 -239v-24v-4q-2 -119 -18.5 -239t-52 -236.5t-92 -228t-136.5 -214.5z" />
<glyph unicode="*" horiz-adv-x="1083" d="M123 866l276 133l-276 134l106 180l242 -185l-33 306h207l-33 -306l242 185l107 -180l-279 -134l279 -133l-107 -178l-242 184l33 -305h-207l33 305l-242 -184z" />
<glyph unicode="+" horiz-adv-x="1257" d="M117 410v204h407v410h209v-410h408v-204h-408v-410h-209v410h-407z" />
<glyph unicode="," horiz-adv-x="454" d="M18 -170l138 451h237l-182 -451h-193z" />
<glyph unicode="-" horiz-adv-x="643" d="M68 408v208h507v-208h-507z" />
<glyph unicode="." horiz-adv-x="532" d="M143 0v246h246v-246h-246z" />
<glyph unicode="/" horiz-adv-x="907" d="M10 -84l658 1585h229l-655 -1585h-232z" />
<glyph unicode="0" d="M49 717q0 172 33 310t98.5 233.5t162.5 146.5t226 51t226.5 -51t163 -146.5t98.5 -233.5t33 -310t-33 -310.5t-98.5 -233.5t-163 -146.5t-226.5 -51.5t-226 51.5t-162.5 146.5t-98.5 233.5t-33 310.5zM309 717q0 -162 23.5 -263.5t61.5 -158.5t84 -77.5t91 -20.5 t91.5 20.5t84 77.5t61 158.5t23.5 263.5t-23.5 263t-61 158.5t-84 78t-91.5 20.5t-91 -20.5t-84 -78t-61.5 -158.5t-23.5 -263z" />
<glyph unicode="1" d="M178 1100l416 334h235v-1434h-245v1147l-262 -221z" />
<glyph unicode="2" d="M96 0v209l334 371q111 121 175.5 195.5t98 122.5t43 81t9.5 74q0 33 -13.5 64.5t-39 57t-64.5 42t-88 16.5q-68 0 -110 -29.5t-65.5 -67.5t-32.5 -76t-13 -52l-228 82q8 47 36 110.5t81 120.5t134 97t198 40q90 0 173 -25.5t147.5 -75.5t103.5 -125t39 -171 q0 -70 -21.5 -132.5t-59.5 -121.5t-88 -118.5t-108 -123.5l-303 -344h598l31 -221h-967z" />
<glyph unicode="3" d="M51 287l182 119q23 -35 52.5 -72t69.5 -66.5t91.5 -48t118.5 -18.5q106 0 167 59t61 143q0 127 -72 180.5t-191 53.5h-235l33 225h213q102 0 149 58.5t47 142.5q0 25 -10 53.5t-33.5 55t-62.5 44t-96 17.5q-49 0 -89 -18.5t-71 -46t-50.5 -61.5t-29.5 -65l-207 68 q18 55 54 116.5t90.5 113t128 85t169.5 33.5q100 0 185.5 -28.5t147 -80t95 -122t33.5 -156.5q0 -66 -17.5 -115t-44 -85.5t-58 -64.5t-60.5 -46v-4q104 -37 173 -130.5t69 -219.5q0 -104 -39 -184.5t-106.5 -134.5t-158 -83t-192.5 -29q-96 0 -173 26t-138.5 69t-108.5 99 t-86 118z" />
<glyph unicode="4" d="M25 307v221l510 906h360v-906h211l16 -221h-227v-307h-246v307h-624zM283 528h366v662z" />
<glyph unicode="5" d="M29 299l188 107q31 -59 76 -107q39 -41 98.5 -72.5t143.5 -31.5q74 0 128 21.5t87.5 57t50 84t16.5 101.5q0 47 -15.5 94t-52 85t-97 61.5t-148.5 23.5h-381l57 711h826l-29 -222h-569l-25 -270h174q127 0 224.5 -42t163 -110.5t99 -155.5t33.5 -175q0 -106 -41 -195.5 t-112.5 -153t-173 -99.5t-220.5 -36q-137 0 -232 50.5t-155 111.5q-70 70 -114 162z" />
<glyph unicode="6" d="M53 621q0 154 28 303t96.5 268t183 192.5t288.5 73.5q70 0 129.5 -16.5t111.5 -44t95 -62.5t80 -69l-133 -166q-53 57 -133 97t-168 40q-86 0 -146.5 -39t-98.5 -96.5t-55.5 -124t-17.5 -119.5q35 33 82 57q41 23 97.5 40.5t128.5 17.5q98 0 185 -38t153.5 -104.5 t104.5 -158.5t38 -201q0 -104 -40 -194.5t-108.5 -158t-162 -105.5t-199.5 -38q-260 0 -399.5 156t-139.5 490zM313 467q0 -61 24.5 -110.5t62.5 -83t85 -51t90 -17.5q63 0 113.5 23.5t85.5 61.5t52.5 86t17.5 95q0 61 -19.5 112.5t-54.5 88.5t-83 57.5t-105 20.5 q-49 0 -97.5 -18.5t-86.5 -53.5t-61.5 -88t-23.5 -123z" />
<glyph unicode="7" d="M49 1434h1010v-224l-617 -1210h-274l614 1212h-704z" />
<glyph unicode="8" d="M39 377q0 100 40 172t90 119t95 70.5t58 27.5q-10 2 -47 20.5t-77 56.5t-72 97t-32 145q0 78 38 145.5t102.5 119t150.5 80t184 28.5q102 -2 189.5 -30.5t151 -79t99 -118t35.5 -145.5q0 -86 -31.5 -145t-71.5 -97t-77 -56.5t-47 -20.5q12 -4 57.5 -27.5t95.5 -70.5 t90 -119t40 -172q0 -82 -36 -154.5t-103.5 -128t-166 -87.5t-225.5 -32t-225 32t-165.5 87.5t-103.5 128t-36 154.5zM297 406q0 -98 74.5 -153.5t199.5 -55.5q72 0 123 18t84 48t48.5 67t15.5 76q0 51 -24.5 93t-64.5 73.5t-88.5 55t-95.5 36.5q-47 -12 -95 -36t-88 -55.5 t-64.5 -73.5t-24.5 -93zM346 1063q0 -49 16.5 -84t46 -59.5t70.5 -42t90 -33.5q49 16 90 33.5t71 42t46.5 58.5t16.5 85q0 86 -58.5 128t-165.5 46q-106 -4 -164.5 -48t-58.5 -126z" />
<glyph unicode="9" d="M37 963q0 104 40 194t108.5 157.5t161.5 105.5t200 38q260 0 399 -155.5t139 -489.5q0 -154 -27.5 -303.5t-96 -268t-183 -192.5t-289.5 -74q-70 0 -129 16.5t-111 44t-95 62.5t-80 70l133 166q53 -57 133 -97t168 -40q94 0 155.5 42t98.5 103t53 130t16 122 q-35 -37 -81 -66q-41 -25 -98.5 -44t-129.5 -19q-94 0 -181 37t-154.5 102.5t-108.5 157.5t-41 201zM295 963q0 -61 19.5 -112.5t54 -88.5t83 -57.5t105.5 -20.5q49 0 97 18.5t86 53.5t61.5 88t23.5 123q0 61 -24.5 111t-62.5 86t-85 54.5t-90 18.5q-66 0 -115 -24.5 t-83.5 -64.5t-52 -89t-17.5 -96z" />
<glyph unicode=":" horiz-adv-x="532" d="M143 0v246h246v-246h-246zM143 778v246h246v-246h-246z" />
<glyph unicode=";" horiz-adv-x="538" d="M2 -170l137 451h244l-182 -451h-199zM137 778v246h246v-246h-246z" />
<glyph unicode="&#x3c;" horiz-adv-x="1177" d="M92 436v152l993 448v-192l-735 -332l735 -332v-192z" />
<glyph unicode="=" horiz-adv-x="1261" d="M102 219v209h1057v-209h-1057zM102 590v209h1057v-209h-1057z" />
<glyph unicode="&#x3e;" horiz-adv-x="1177" d="M92 -12v192l735 332l-735 332v192l993 -448v-152z" />
<glyph unicode="?" horiz-adv-x="1003" d="M41 1030q14 92 47 170t86 135.5t132 90t190 32.5q98 0 178 -24.5t137 -72.5t89 -117.5t32 -158.5q0 -84 -36 -158.5t-85 -137t-99 -111.5t-79 -82q-35 -41 -49.5 -81t-14.5 -105v-11h-245v19q0 61 6 103t18 76t31.5 60.5t46.5 57.5q43 47 87 91t80 87t58.5 88t22.5 98 q0 25 -8.5 52.5t-29 51t-55 39t-87.5 15.5q-55 0 -96.5 -21.5t-70 -56.5t-45 -81t-24.5 -97zM324 0v246h245v-246h-245z" />
<glyph unicode="@" horiz-adv-x="1660" d="M104 647q0 145 46.5 289.5t143.5 260.5t249.5 188.5t365.5 72.5q111 0 222.5 -36t201.5 -106.5t148.5 -176t66.5 -242.5q8 -143 -25.5 -250.5t-94 -180.5t-137.5 -108.5t-156 -35.5q-23 0 -49.5 5t-50 20t-42 40t-24.5 66q-18 -29 -46 -51.5t-62 -39t-70.5 -25.5 t-71.5 -9q-63 0 -112.5 26.5t-83.5 69.5t-51 96t-17 109q0 96 25.5 187t76.5 161t127 111.5t176 41.5q57 0 110.5 -19t96.5 -71l14 54h176l-143 -473q-4 -18 -9 -41t-5 -41q0 -23 9 -39.5t36 -16.5q43 0 88 27t80 78t57.5 124.5t22.5 166.5q-4 113 -49.5 194.5t-116 135 t-160.5 78t-182 24.5q-135 0 -247 -58.5t-190.5 -151.5t-122.5 -211t-44 -235q0 -135 44 -235.5t120.5 -166t180 -97t226.5 -31.5q68 0 133.5 14.5t121.5 34t99 39.5t68 35l86 -139q-86 -59 -220 -96.5t-337 -37.5q-135 0 -261 42t-223.5 127t-156 211t-58.5 292zM637 631 q0 -57 25.5 -102.5t82.5 -45.5q70 0 118 42t83 100v-2q8 18 18.5 48.5t19.5 66.5t15.5 73t6.5 66q0 12 -10.5 31.5t-29 37t-45 29.5t-59.5 12q-61 0 -104 -34.5t-69.5 -88t-39 -116t-12.5 -117.5z" />
<glyph unicode="A" horiz-adv-x="1417" d="M4 0l571 1434h267l571 -1434h-268l-146 367h-581l-146 -367h-268zM502 588h413l-206 520z" />
<glyph unicode="B" horiz-adv-x="1277" d="M158 0v1434h522q113 0 194.5 -31t135 -83t79 -123t25.5 -148q0 -76 -29.5 -130.5t-68.5 -89t-76 -54t-49 -23.5v-4q45 -6 96 -31t94 -66t72 -99t29 -134q0 -125 -41 -206t-110.5 -128t-159 -65.5t-183.5 -18.5h-530zM403 221h254q35 0 81 6t87 27.5t69 62.5t28 111 q0 23 -7.5 57.5t-31 67.5t-69.5 56.5t-126 25.5h-285v-414zM403 856h242q115 0 166 46t51 132q0 49 -18.5 84t-47 55.5t-67.5 29.5t-78 9h-248v-356z" />
<glyph unicode="C" horiz-adv-x="1470" d="M96 715q0 154 58.5 289t158 235t234.5 158.5t289 58.5q76 0 142 -13t128.5 -41t123 -72t124.5 -105l-160 -156q-86 92 -173 129t-185 37q-111 0 -199 -41t-150.5 -111.5t-96.5 -166t-34 -201.5t34 -200.5t96.5 -165t151.5 -111.5t198 -41q80 0 142 20.5t112.5 53 t89.5 75.5t71 86l158 -156q-43 -59 -98.5 -114.5t-126 -96t-156.5 -65.5t-192 -25q-154 0 -289 58.5t-234.5 158t-158 234.5t-58.5 289z" />
<glyph unicode="D" horiz-adv-x="1550" d="M158 0v1434h540q203 0 345.5 -59.5t232.5 -158t131 -226.5t41 -267q0 -348 -176 -535.5t-565 -187.5h-549zM403 221h269q143 0 241.5 33t160 97.5t88 157.5t26.5 214q0 106 -27.5 196.5t-89 156t-161 101t-242.5 35.5h-265v-991z" />
<glyph unicode="E" horiz-adv-x="1202" d="M158 0v1434h946l-17 -222h-684v-362h586v-221h-586v-424h705l16 -205h-966z" />
<glyph unicode="F" horiz-adv-x="1161" d="M158 0v1434h946l-17 -222h-684v-383h586v-221h-586v-608h-245z" />
<glyph unicode="G" horiz-adv-x="1550" d="M96 715q0 154 58.5 289t158 235t234.5 158.5t289 58.5q76 0 144.5 -11t134 -37t131 -67t134.5 -100l-149 -164q-33 27 -70 55.5t-85 51t-106.5 37t-133.5 14.5q-111 0 -199 -41t-150.5 -111.5t-96.5 -166t-34 -201.5t34 -200.5t96.5 -165t151.5 -111.5t198 -41 q66 0 119 11t92.5 26.5t67.5 32t42 26.5v268h-262l16 221h492v-600q-117 -92 -260.5 -149.5t-317.5 -57.5q-150 0 -281.5 58.5t-231 158t-158 234.5t-58.5 289z" />
<glyph unicode="H" horiz-adv-x="1476" d="M158 0v1434h245v-574h670v574h246v-1434h-246v639h-670v-639h-245z" />
<glyph unicode="I" horiz-adv-x="561" d="M158 0v1434h245v-1434h-245z" />
<glyph unicode="J" horiz-adv-x="831" d="M23 10l22 232q27 -8 64 -17q29 -6 70.5 -11t92.5 -5q94 0 128 65.5t34 180.5v979h246v-1049q0 -193 -105.5 -301.5t-291.5 -108.5q-51 0 -97.5 5.5t-83.5 11.5q-43 8 -79 18z" />
<glyph unicode="K" horiz-adv-x="1327" d="M158 0v1434h245v-564l549 564h330l-676 -666l742 -768h-332l-613 651v-651h-245z" />
<glyph unicode="L" horiz-adv-x="1054" d="M158 0v1434h245v-1213h607l16 -221h-868z" />
<glyph unicode="M" horiz-adv-x="1884" d="M158 0v1434h325l457 -1106h4l457 1106h325v-1434h-245v999h-4l-412 -999h-246l-411 999h-5v-999h-245z" />
<glyph unicode="N" horiz-adv-x="1529" d="M158 0v1434h303l661 -1047h4v1047h246v-1434h-291l-673 1061h-5v-1061h-245z" />
<glyph unicode="O" horiz-adv-x="1675" d="M96 713v8q0 154 58.5 288t159 233t234.5 157.5t288 58.5h4q154 0 288 -58.5t234 -157.5t158.5 -233.5t58.5 -287.5v-8q0 -154 -58.5 -288t-158.5 -233.5t-234.5 -158t-287.5 -58.5h-4q-154 0 -288 58.5t-234.5 158t-159 233.5t-58.5 288zM356 713q2 -106 36 -199.5 t96.5 -164t149.5 -111.5t196 -41h8q106 0 194 41t150.5 111.5t96.5 163.5t36 200v8q-2 106 -36 199.5t-96.5 164t-150.5 111.5t-194 41h-8q-109 0 -196 -41t-149.5 -111.5t-96.5 -164t-36 -199.5v-8z" />
<glyph unicode="P" horiz-adv-x="1179" d="M158 0v1434h483q129 0 222 -30t153.5 -85t88.5 -133t28 -172q0 -104 -29 -192.5t-88.5 -152t-154.5 -99t-226 -35.5h-232v-535h-245zM403 756h193q141 0 208.5 63t67.5 174q0 100 -72.5 159.5t-199.5 59.5h-197v-456z" />
<glyph unicode="Q" horiz-adv-x="1691" d="M96 715q0 154 58.5 289t158 236t234.5 159.5t289 58.5t289 -58.5t236 -159.5t159.5 -236.5t58.5 -288.5q0 -147 -62.5 -273.5t-166.5 -220.5h288l17 -221h-819q-154 0 -289 54.5t-234.5 149.5t-158 226t-58.5 285zM356 715q0 -100 35 -190.5t98.5 -158t151.5 -106.5 t195 -39q106 0 195 36t152.5 100.5t99.5 155.5t36 202q0 121 -39 217t-105.5 163.5t-154.5 104.5t-184 37q-119 0 -208 -47t-149.5 -122t-91.5 -168t-31 -185z" />
<glyph unicode="R" horiz-adv-x="1335" d="M158 0v1434h473q74 0 158.5 -9.5t158.5 -49.5t122 -119.5t48 -219.5q0 -66 -20.5 -119t-55 -95t-81 -69.5t-95.5 -41.5v-4q47 -18 88 -95l328 -612h-278l-234 457q-58 114 -154 114h-2h-211v-571h-245zM403 793h185q117 0 193.5 54t76.5 165q0 104 -65.5 152t-196.5 48 h-193v-419z" />
<glyph unicode="S" horiz-adv-x="1124" d="M68 57l67 213q14 -6 54 -18t95.5 -24.5t124 -21.5t142.5 -9q37 0 82 6t85 25.5t67.5 55t27.5 95.5q0 55 -46 99t-111.5 80t-136 65.5t-118.5 56.5q-23 12 -69.5 42t-92.5 76t-81 110.5t-35 150.5q0 113 43 187.5t109.5 118.5t143.5 61.5t144 17.5q47 0 112.5 -2t130 -5 t119 -6.5t81.5 -5.5l-52 -211q-6 0 -39.5 2.5t-80 3.5t-97.5 2t-94 1q-37 0 -83 -2t-86 -15.5t-66.5 -42t-26.5 -82.5q0 -20 6 -45.5t35 -58.5t90 -74t172 -92q76 -35 146.5 -74t123 -88t84 -112.5t31.5 -147.5q0 -111 -45 -189.5t-117.5 -127.5t-163 -73t-182.5 -24 q-111 0 -192.5 9.5t-140 21.5t-96.5 26.5t-64 24.5z" />
<glyph unicode="T" horiz-adv-x="1236" d="M20 1212l19 222h1178l-19 -222h-457v-1212h-245v1212h-476z" />
<glyph unicode="U" horiz-adv-x="1441" d="M154 547v887h245v-854q0 -174 76 -272.5t246 -98.5t245.5 98.5t75.5 272.5v854h246v-887q0 -135 -40 -241.5t-113.5 -180.5t-178 -112t-235.5 -38t-235.5 38t-178.5 112t-113.5 180.5t-39.5 241.5z" />
<glyph unicode="V" horiz-adv-x="1327" d="M-6 1434h258l412 -1166l411 1166h258l-516 -1434h-309z" />
<glyph unicode="W" horiz-adv-x="1882" d="M12 1434h252l271 -1008l282 1008h248l283 -1008l270 1008h252l-395 -1434h-246l-289 1042l-289 -1042h-245z" />
<glyph unicode="X" horiz-adv-x="1318" d="M4 0l516 719l-510 715h299l350 -512l351 512h299l-508 -715l514 -719h-299l-357 524l-356 -524h-299z" />
<glyph unicode="Y" horiz-adv-x="1318" d="M-12 1434h297l374 -555l375 555h297l-549 -799v-635h-245v635z" />
<glyph unicode="Z" horiz-adv-x="1265" d="M68 0v221l751 991h-696l-17 222h1059v-170l-786 -1043h801l18 -221h-1130z" />
<glyph unicode="[" horiz-adv-x="649" d="M184 -348v1857h410v-184h-188v-1489h188v-184h-410z" />
<glyph unicode="\" horiz-adv-x="907" d="M10 1501h230l657 -1585h-231z" />
<glyph unicode="]" horiz-adv-x="649" d="M57 -164h189v1489h-189v184h410v-1857h-410v184z" />
<glyph unicode="^" horiz-adv-x="1323" d="M164 625l407 809h181l407 -809h-196l-301 602l-302 -602h-196z" />
<glyph unicode="_" horiz-adv-x="1024" d="M0 -154h1024v-102h-1024v102z" />
<glyph unicode="`" horiz-adv-x="1705" d="M-47 1450h254l184 -293h-162z" />
<glyph unicode="a" horiz-adv-x="1122" d="M82 285q0 68 25.5 135t79 121.5t135 87.5t196.5 33q66 0 126.5 -15.5t113.5 -36.5v23q0 66 -19.5 107.5t-53.5 65t-80 32t-99 8.5q-39 0 -78 -9.5t-74 -21.5t-63.5 -26.5t-44.5 -22.5l-76 164q14 8 49 27.5t87 40t121 36t153 15.5q80 0 153.5 -25t130 -71t91 -112.5 t34.5 -152.5v-688h-231v76q-6 -4 -31 -20.5t-65.5 -34t-96 -32t-123.5 -14.5q-70 0 -134 20.5t-114.5 59.5t-81 96.5t-30.5 133.5zM326 315q0 -66 48 -103.5t132 -37.5q55 0 100 11.5t80 27.5q39 18 72 41v164q-41 16 -93.5 34.5t-121.5 18.5q-96 0 -156.5 -43t-60.5 -113z " />
<glyph unicode="b" horiz-adv-x="1216" d="M139 0v1536h232v-598q61 47 150 79t184 32q106 0 189 -42t138 -116t84 -174.5t29 -214.5q0 -115 -27.5 -211t-82 -166t-135.5 -110t-187 -40q-61 0 -113.5 11.5t-95.5 29t-77 36t-56 34.5v-86h-232zM371 283q59 -37 133 -67t162 -30q49 0 92 16.5t74.5 53.5t50 97.5 t18.5 146.5q0 55 -11 115.5t-39 109.5t-74 81t-115 32q-43 0 -87.5 -8.5t-82 -21.5t-69.5 -28.5t-52 -29.5v-467z" />
<glyph unicode="c" horiz-adv-x="1073" d="M78 510q0 113 42 211t114.5 171t171 115t210.5 42q123 0 219.5 -48.5t170.5 -121.5l-160 -162q-41 49 -99.5 79.5t-130.5 30.5q-68 0 -122 -24.5t-93 -66.5t-59 -100t-20 -126q0 -66 21.5 -123t60 -99t93 -66.5t119.5 -24.5q84 0 145.5 34.5t100.5 94.5l170 -152 q-74 -90 -177 -144.5t-239 -54.5q-113 0 -211 41t-170.5 114t-114.5 170t-42 210z" />
<glyph unicode="d" horiz-adv-x="1216" d="M72 502q0 115 28.5 215t84 174t137 116t190.5 42q94 0 183 -32t151 -79v598h231v-1536h-231v86q-23 -16 -56.5 -34.5t-76.5 -36t-95.5 -29t-113.5 -11.5q-106 0 -187 40t-135.5 110t-82 166t-27.5 211zM315 500q0 -86 18.5 -146.5t50.5 -97.5t75 -53.5t92 -16.5 q88 0 161.5 30t133.5 67v467q-20 14 -52 29.5t-71 28.5t-82 21.5t-86 8.5q-70 0 -116 -32t-73.5 -81t-39 -109.5t-11.5 -115.5z" />
<glyph unicode="e" horiz-adv-x="1165" d="M78 506q0 111 37 210t104.5 173t160.5 117t206 43q242 0 380 -153t138 -460h-782q0 -41 20 -81t58 -75.5t93.5 -59t124.5 -23.5q162 0 283 108l160 -153q-88 -86 -203 -131.5t-250 -45.5q-115 0 -211 41t-167.5 113t-111.5 169t-40 208zM326 625h528q-6 57 -35 102 q-25 39 -77 71.5t-148 32.5q-80 0 -130 -26.5t-81 -62t-43 -69.5t-14 -48z" />
<glyph unicode="f" horiz-adv-x="768" d="M18 815l19 209h168v123q0 100 37 173t90 121t114.5 71.5t110.5 23.5q53 0 93 -5t69 -9q33 -6 57 -13l-18 -229l-62 12q-27 4 -57.5 9.5t-58.5 5.5q-49 0 -77 -19.5t-43.5 -51.5t-19.5 -72t-4 -79v-61h299l-18 -209h-281v-815h-231v815h-187z" />
<glyph unicode="g" horiz-adv-x="1120" d="M78 -352l67 196q35 -23 82 -45t99.5 -39.5t107.5 -28t109 -10.5q74 0 124 12.5t81.5 32t46 45t14.5 52.5q0 121 -166 121h-174q-174 0 -247 55q-59 45 -59 128q0 18 3 38q4 35 18.5 62.5t30.5 49.5q18 25 37 45q-18 12 -46 39t-53.5 67t-44 94t-18.5 124q0 66 25.5 131.5 t75 116.5t121 83t163.5 32q100 0 168 -24t125 -52v51h236v-360q0 -176 -114 -280.5t-323 -104.5q-35 0 -66.5 4t-54.5 8q-27 6 -49 12q-6 -14 -12 -27.5t-8 -23.5q-4 -35 18.5 -50.5t63.5 -15.5h272q156 0 239 -65.5t83 -214.5v-27q0 -180 -134.5 -273t-365.5 -93 q-115 0 -202 20.5t-148 46.5q-72 29 -125 68zM326 694q0 -61 23.5 -101t58 -63.5t76.5 -33t77 -9.5q96 0 153.5 48.5t57.5 132.5v106q-18 12 -45 26.5t-58.5 29t-68.5 23.5t-76 9q-55 0 -93 -15.5t-61.5 -39t-33.5 -53t-10 -60.5z" />
<glyph unicode="h" horiz-adv-x="1208" d="M139 0v1536h232v-584q8 4 34.5 19.5t67.5 33t92 31t111 13.5q63 0 134 -17.5t131 -57.5t99 -106.5t39 -167.5v-700h-231v598q0 74 -21.5 122t-56.5 76.5t-80 41t-90 12.5q-57 0 -115.5 -20.5t-113.5 -53.5v-776h-232z" />
<glyph unicode="i" horiz-adv-x="497" d="M133 0v1024h232v-1024h-232zM133 1217v217h232v-217h-232z" />
<glyph unicode="j" horiz-adv-x="501" d="M-205 -420l17 215q31 -8 63 -16q29 -6 60.5 -10.5t60.5 -4.5q80 0 110.5 57.5t30.5 149.5v1053h232v-1081q0 -102 -35 -176t-89.5 -123.5t-119 -73t-121.5 -23.5q-43 0 -81 5.5t-66 11.5q-35 8 -62 16zM137 1217v217h232v-217h-232z" />
<glyph unicode="k" horiz-adv-x="1034" d="M139 0v1536h230v-838l307 326h307l-459 -455l539 -569h-309l-385 428v-428h-230zM676 1024h307h-307z" />
<glyph unicode="l" horiz-adv-x="509" d="M139 0v1536h232v-1536h-232z" />
<glyph unicode="m" horiz-adv-x="1861" d="M133 0v1024h232v-72q6 4 30.5 19.5t63.5 33t90 31t108 13.5q98 0 182.5 -30t143.5 -101q66 51 158 91t200 40q61 0 130 -15.5t127.5 -54.5t96.5 -105.5t38 -171.5v-702h-232v616q0 66 -23.5 111t-59.5 72.5t-78 39t-80 11.5q-53 0 -110.5 -20.5t-113.5 -55.5 q4 -12 8.5 -49t4.5 -74v-651h-232v618q0 59 -20.5 103.5t-55 73t-80 42t-94.5 13.5q-39 0 -74.5 -11.5t-64.5 -25.5q-35 -16 -63 -35v-778h-232z" />
<glyph unicode="n" horiz-adv-x="1202" d="M133 0v1024h232v-72q8 4 34.5 19.5t67.5 33t92 31t111 13.5q63 0 133.5 -17.5t131 -57.5t99.5 -106.5t39 -167.5v-700h-231v598q0 74 -21.5 122t-56.5 76.5t-80 41t-90 12.5q-57 0 -115.5 -20.5t-113.5 -53.5v-776h-232z" />
<glyph unicode="o" horiz-adv-x="1236" d="M78 510q0 113 42 211t114.5 171t171 115t210.5 42q113 0 212.5 -42t173 -115t115.5 -171t42 -211t-42 -210t-115.5 -170t-173 -114t-212.5 -41t-211 41t-170.5 114t-114.5 170t-42 210zM319 510q0 -66 21.5 -124t60.5 -101t94.5 -67.5t120.5 -24.5q68 0 123.5 24.5 t94 67.5t60 101t21.5 124q0 68 -21.5 126t-61 102t-94 68.5t-122.5 24.5t-123 -24.5t-93 -68.5t-59.5 -102t-21.5 -126z" />
<glyph unicode="p" horiz-adv-x="1216" d="M139 -457v1481h232v-86q23 14 56.5 33.5t76.5 37t95 29t114 11.5q106 0 187 -40t135.5 -110t82 -167t27.5 -210q0 -115 -29 -215t-84 -174t-138 -116t-189 -42q-94 0 -183.5 32t-150.5 79v-543h-232zM371 274q20 -14 52 -29.5t69.5 -28.5t81.5 -21.5t88 -8.5 q70 0 115.5 32t73.5 81t39 109.5t11 115.5q0 86 -18.5 146.5t-50 97.5t-74.5 53.5t-92 16.5q-88 0 -162 -30t-133 -67v-467z" />
<glyph unicode="q" horiz-adv-x="1216" d="M72 522q0 113 27.5 210t82 167t135 110t187.5 40q61 0 113.5 -11.5t95.5 -29t76.5 -37t56.5 -33.5v86h231v-1481h-231v543q-61 -47 -150.5 -79t-183.5 -32q-109 0 -190.5 42t-137 116t-84 174.5t-28.5 214.5zM315 524q0 -55 11.5 -115.5t39 -109.5t73.5 -81t116 -32 q43 0 86 8.5t82 21.5t70.5 28.5t52.5 29.5v467q-59 37 -133 67t-162 30q-49 0 -92 -16.5t-75 -53.5t-50.5 -97.5t-18.5 -146.5z" />
<glyph unicode="r" horiz-adv-x="788" d="M133 0v1024h227v-139q4 6 31 31.5t70 55t103.5 53.5t131.5 24q16 0 39 -3.5t33 -7.5l-45 -227q-14 4 -31.5 10t-58.5 6q-43 0 -84 -14t-77 -34.5t-63.5 -43t-43.5 -41.5v-694h-232z" />
<glyph unicode="s" horiz-adv-x="905" d="M55 55l62 201q37 -20 86 -37q41 -14 98 -24.5t125 -10.5q86 0 131 17.5t45 60.5q0 27 -9 45.5t-31.5 34.5t-62.5 33.5t-102 44.5q-53 25 -108.5 51.5t-99.5 62t-71.5 86t-27.5 123.5q0 76 27.5 131.5t75 91t107.5 53t128 17.5q115 0 214 -7t140 -11l-47 -207 q-59 2 -142 7t-169 5q-43 0 -74 -14t-31 -53q0 -27 13.5 -45.5t35 -33.5t50 -28.5t61.5 -27.5l72 -33q53 -25 103.5 -50.5t90 -59.5t64.5 -80t25 -111q0 -80 -29 -138.5t-81 -97.5t-125 -57.5t-159 -18.5q-94 0 -165.5 11.5t-120.5 27.5q-57 18 -99 41z" />
<glyph unicode="t" horiz-adv-x="847" d="M51 815l15 209h167v240l232 47v-287h313l-14 -209h-299v-461q0 -100 37 -135t106 -35q27 0 54.5 7.5t50.5 17.5q25 10 49 24l20 -210q-23 -14 -57 -25q-29 -10 -72 -16.5t-102 -6.5q-84 0 -144.5 31t-99.5 85t-56.5 127t-17.5 157v440h-182z" />
<glyph unicode="u" horiz-adv-x="1202" d="M129 324v700h231v-598q0 -74 21.5 -122t56.5 -76.5t79 -41t91 -12.5q57 0 115.5 20.5t114.5 53.5v776h231v-1024h-231v72q-8 -4 -35 -20.5t-68 -33t-93 -30t-110 -13.5q-63 0 -133.5 17.5t-131 57.5t-99.5 106.5t-39 167.5z" />
<glyph unicode="v" horiz-adv-x="1042" d="M6 1024h244l270 -788h2l271 788h243l-356 -1024h-318z" />
<glyph unicode="w" horiz-adv-x="1540" d="M12 1024h238l199 -698l204 698h234l205 -698l198 698h238l-299 -1024h-242l-215 655h-4l-215 -655h-242z" />
<glyph unicode="x" horiz-adv-x="1040" d="M-4 0l389 516l-383 508h287l231 -324l230 324h286l-381 -508l389 -516h-286l-238 336l-237 -336h-287z" />
<glyph unicode="y" horiz-adv-x="1216" d="M139 324v700h232v-602q0 -72 22.5 -119t56 -75.5t74.5 -41t76 -12.5q80 0 136.5 21.5t111.5 54.5v774h231v-1118q0 -82 -25.5 -140.5t-66.5 -97.5t-93 -63.5t-103.5 -36.5t-98.5 -16.5t-80 -4.5q-78 0 -148.5 14.5t-125.5 32.5q-66 23 -121 50l57 198q94 -39 164 -58.5 t152 -19.5q92 0 144 26t78 63.5t31 83t5 81.5v54q-8 -4 -36 -20.5t-67.5 -33t-91 -30t-106.5 -13.5q-74 0 -146.5 18.5t-131 59.5t-94.5 107.5t-36 163.5z" />
<glyph unicode="z" horiz-adv-x="1019" d="M57 0l2 186l535 629h-483l-17 209h819v-180l-540 -635h571l17 -209h-904z" />
<glyph unicode="{" horiz-adv-x="729" d="M61 498v184q66 0 115 52t49 159v360q0 61 21.5 109.5t55.5 81.5t74 49t77 16h204v-184h-110q-33 0 -52.5 -13.5t-30.5 -37t-14.5 -52t-3.5 -59.5v-309q0 -70 -21.5 -118t-51 -78.5t-59 -46t-48.5 -19.5v-4q18 -2 48 -15.5t59.5 -43t51 -80t21.5 -125.5v-326 q0 -31 3.5 -59.5t14.5 -51t30.5 -37t52.5 -14.5h110v-184h-204q-39 0 -79 16.5t-73 49t-54.5 80.5t-21.5 110v377q0 111 -49 162t-115 51z" />
<glyph unicode="|" horiz-adv-x="520" d="M156 -512v2048h209v-2048h-209z" />
<glyph unicode="}" horiz-adv-x="729" d="M72 -164h110q33 0 52.5 14.5t29.5 37t14.5 51t4.5 59.5v326q0 76 21.5 126t51 79.5t59 43t48.5 15.5v4q-18 4 -48 19.5t-59.5 46t-51 78.5t-21.5 118v309q0 31 -4.5 59.5t-14.5 52t-29.5 37t-52.5 13.5h-110v184h204q37 0 77 -16t74 -49t55.5 -81t21.5 -110v-360 q0 -106 49 -158.5t115 -52.5v-184q-66 0 -115 -51.5t-49 -161.5v-377q0 -61 -21.5 -109.5t-54.5 -81t-73 -49t-79 -16.5h-204v184z" />
<glyph unicode="~" horiz-adv-x="1316" d="M143 512q53 72 122 123t171 51q53 0 108.5 -14.5t112.5 -38.5q53 -25 112.5 -49.5t121.5 -24.5q25 0 51.5 12.5t50 32t45 43t37.5 43.5l99 -127q-53 -72 -122 -123t-171 -51q-66 0 -121 19.5t-107.5 44t-104.5 44t-112 19.5q-57 0 -101 -37t-93 -94z" />
<glyph unicode="&#xa1;" horiz-adv-x="548" d="M147 -410l25 1057h205l24 -1057h-254zM152 778v246h245v-246h-245z" />
<glyph unicode="&#xa6;" horiz-adv-x="520" d="M156 360h209v-872h-209v872zM156 664v872h209v-872h-209z" />
<glyph unicode="&#xad;" horiz-adv-x="643" d="M68 408v208h507v-208h-507z" />
<glyph unicode="&#xbf;" horiz-adv-x="1003" d="M72 -61q0 84 35.5 158.5t85 137t99.5 111.5t79 82q35 41 49 81t14 105v11h246v-19q0 -61 -6 -103t-18.5 -76t-32 -60.5t-45.5 -57.5q-43 -47 -87.5 -91t-80 -87t-58 -88t-22.5 -98q0 -25 8 -52.5t28.5 -51t55.5 -39t88 -15.5q55 0 96 21.5t70 56.5t45 81t24 97l218 -49 q-14 -92 -47 -170t-86.5 -135.5t-132.5 -90t-189 -32.5q-98 0 -178 24.5t-137.5 72.5t-89 117.5t-31.5 158.5zM434 778v246h246v-246h-246z" />
<glyph unicode="&#xde;" horiz-adv-x="1179" d="M158 0v1434h245v-185h238q129 0 222 -29.5t153.5 -85t88.5 -133t28 -172.5q0 -104 -29 -192t-88.5 -151.5t-154.5 -99.5t-226 -36h-232v-350h-245zM403 571h193q141 0 208.5 63.5t67.5 174.5q0 100 -72.5 159.5t-199.5 59.5h-197v-457z" />
<glyph unicode="&#xfe;" horiz-adv-x="1216" d="M139 -457v1993h232v-598q23 14 56.5 33.5t76.5 37t95 29t114 11.5q106 0 187 -40t135.5 -110t82 -167t27.5 -210q0 -115 -29 -215t-84 -174t-138 -116t-189 -42q-94 0 -183.5 32t-150.5 79v-543h-232zM371 274q20 -14 52 -29.5t69.5 -28.5t81.5 -21.5t88 -8.5 q70 0 115.5 32t73.5 81t39 109.5t11 115.5q0 86 -18.5 146.5t-50 97.5t-74.5 53.5t-92 16.5q-88 0 -162 -30t-133 -67v-467z" />
<glyph unicode="&#x2000;" horiz-adv-x="802" />
<glyph unicode="&#x2001;" horiz-adv-x="1604" />
<glyph unicode="&#x2002;" horiz-adv-x="802" />
<glyph unicode="&#x2003;" horiz-adv-x="1604" />
<glyph unicode="&#x2004;" horiz-adv-x="534" />
<glyph unicode="&#x2005;" horiz-adv-x="401" />
<glyph unicode="&#x2006;" horiz-adv-x="267" />
<glyph unicode="&#x2007;" horiz-adv-x="267" />
<glyph unicode="&#x2008;" horiz-adv-x="200" />
<glyph unicode="&#x2009;" horiz-adv-x="320" />
<glyph unicode="&#x200a;" horiz-adv-x="89" />
<glyph unicode="&#x2010;" horiz-adv-x="643" d="M68 408v208h507v-208h-507z" />
<glyph unicode="&#x2011;" horiz-adv-x="643" d="M68 408v208h507v-208h-507z" />
<glyph unicode="&#x2012;" horiz-adv-x="643" d="M68 408v208h507v-208h-507z" />
<glyph unicode="&#x2013;" horiz-adv-x="1160" d="M68 408v208h1024v-208h-1024z" />
<glyph unicode="&#x2014;" horiz-adv-x="2184" d="M68 408v208h2048v-208h-2048z" />
<glyph unicode="&#x202f;" horiz-adv-x="320" />
<glyph unicode="&#x205f;" horiz-adv-x="401" />
<glyph unicode="&#x25fc;" horiz-adv-x="1024" d="M0 0v1024h1024v-1024h-1024z" />
</font>
</defs>
</svg>
