<?xml version="1.0" encoding="utf-8"?>
<!-- Generator: Adobe Illustrator 18.1.1, SVG Export Plug-In . SVG Version: 6.00 Build 0)  -->
<!DOCTYPE svg PUBLIC "-//W3C//DTD SVG 1.1//EN" "http://www.w3.org/Graphics/SVG/1.1/DTD/svg11.dtd">
<svg version="1.1" id="Layer_1" xmlns="http://www.w3.org/2000/svg" xmlns:xlink="http://www.w3.org/1999/xlink" x="0px" y="0px"
	 viewBox="0 0 27 27" enable-background="new 0 0 27 27" xml:space="preserve">
<g>
	<path fill="#393939" d="M24.7,0.8h-8.8c-0.9,0-1.6,0.7-1.6,1.6S15,4,15.9,4h5l-8.3,8.3c-0.3,0.3-0.5,0.7-0.5,1.1
		c0,0.4,0.2,0.8,0.5,1.1s0.7,0.5,1.1,0.5c0.4,0,0.8-0.2,1.1-0.5l8.3-8.3v5c0,0.9,0.7,1.6,1.6,1.6s1.6-0.7,1.6-1.6V2.3
		C26.2,1.5,25.5,0.8,24.7,0.8L24.7,0.8z"/>
	<path fill="#393939" d="M18.8,23.5H3.5V8.2H15l2.7-2.7H2.1c-0.7,0-1.3,0.6-1.3,1.3v18c0,0.7,0.6,1.3,1.3,1.3h18
		c0.7,0,1.3-0.6,1.3-1.3V9.3L18.8,12V23.5z"/>
</g>
</svg>
